<svg width="454" height="813" viewBox="0 0 454 813" fill="none" xmlns="http://www.w3.org/2000/svg">
<rect x="68.2305" y="200.833" width="318.629" height="442.219" rx="32.1848" fill="url(#paint0_diamond_673_12630)"/>
<rect x="68.2305" y="200.833" width="318.629" height="442.219" rx="32.1848" fill="black" fill-opacity="0.2"/>
<rect x="68.2305" y="200.833" width="318.629" height="442.219" rx="32.1848" fill="black" fill-opacity="0.2"/>
<rect x="68.2305" y="200.833" width="318.629" height="442.219" rx="32.1848" fill="black" fill-opacity="0.2"/>
<rect x="68.2305" y="200.833" width="318.629" height="442.219" rx="32.1848" fill="black" fill-opacity="0.2"/>
<rect x="68.8742" y="201.477" width="317.342" height="440.931" rx="31.5411" stroke="url(#paint1_linear_673_12630)" stroke-opacity="0.5" stroke-width="1.28739"/>
<path fill-rule="evenodd" clip-rule="evenodd" d="M112.338 548.01C173.39 513.252 272.035 513.837 332.67 549.318L337.869 552.361C359.859 565.228 373.829 580.918 379.793 597.349L383.84 596.613L382.59 608.441C386.255 633.996 371.081 660.201 337.114 679.54C276.063 714.298 177.417 713.713 116.783 678.232L111.583 675.189C50.949 639.709 51.287 582.768 112.338 548.01Z" fill="url(#paint2_linear_673_12630)"/>
<path fill-rule="evenodd" clip-rule="evenodd" d="M113.817 542.592C174.868 507.834 273.514 508.42 334.148 543.901L339.347 546.943C361.195 559.728 375.127 575.298 381.155 591.614L386.665 590.572L384.6 611.028C384.568 614.179 384.25 617.328 383.648 620.462L383.594 620.994L383.53 621.058C379.559 640.521 364.574 659.33 338.592 674.122C277.541 708.881 178.895 708.295 118.261 672.814L113.062 669.772C52.4273 634.291 52.7654 577.351 113.817 542.592Z" fill="url(#paint3_linear_673_12630)"/>
<rect width="254.407" height="260.431" rx="127.203" transform="matrix(-0.869028 0.494764 0.863091 0.505048 223.865 460.446)" fill="url(#paint4_linear_673_12630)"/>
<rect x="-0.00500961" y="0.843732" width="255.124" height="260.46" rx="127.562" transform="matrix(-0.869028 0.494764 0.863091 0.505048 224.928 454.408)" fill="url(#paint5_radial_673_12630)"/>
<rect x="-0.00500961" y="0.843732" width="255.124" height="260.46" rx="127.562" transform="matrix(-0.869028 0.494764 0.863091 0.505048 224.928 454.408)" stroke="url(#paint6_linear_673_12630)" stroke-width="1.68778"/>
<rect x="-0.00500961" y="0.843732" width="255.124" height="260.46" rx="127.562" transform="matrix(-0.869028 0.494764 0.863091 0.505048 224.928 454.408)" stroke="url(#paint7_linear_673_12630)" stroke-width="1.68778"/>
<path d="M228.701 584.25C229.308 584.479 230.176 584.808 231.435 585.465L205.246 611.909C219.245 616.571 229.179 613.167 234.795 607.496C239.628 602.616 240.032 596.786 233.721 592.676L237.966 588.389C247.011 594.077 245.711 602.379 238.788 609.369C230.167 618.074 215.454 621.845 199.307 615.737C184.55 610.154 182.011 599.584 191.089 590.417C200.755 580.658 216.027 579.455 228.701 584.25ZM195.299 592.191C189.617 597.929 190.121 605.372 200.992 610.3L223.197 587.879C210.934 583.874 201.111 586.322 195.299 592.191ZM272.974 573.163L231.984 574.789L228.165 573.344L229.601 571.893C231.909 569.563 233.557 567.497 234.546 565.696C235.578 563.85 235.886 562.214 235.469 560.787C235.052 559.36 233.774 558.121 231.633 557.069L218.963 569.863L213.407 567.761L226.012 555.034C223.566 554.531 221.22 554.49 218.975 554.91C216.671 555.307 214.418 556.177 212.214 557.519C210.053 558.817 207.863 560.587 205.642 562.829L204.206 564.28L198.65 562.178L225.688 534.877L231.244 536.979L218.9 549.442C221.001 548.847 223.13 548.504 225.288 548.414C227.446 548.324 229.625 548.574 231.824 549.164L240.445 540.46L246.001 542.561L237.511 551.134C241.431 553.04 243.51 555.519 243.749 558.571C243.974 561.557 242.664 564.929 239.817 568.687L279.636 566.436L272.974 573.163Z" fill="url(#paint8_linear_673_12630)"/>
<path fill-rule="evenodd" clip-rule="evenodd" d="M112.338 189.01C173.39 154.252 272.035 154.837 332.67 190.318L337.869 193.361C359.859 206.228 373.829 221.918 379.793 238.349L383.84 237.613L382.59 249.441C386.255 274.996 371.081 301.201 337.114 320.54C276.063 355.298 177.417 354.713 116.783 319.232L111.583 316.189C50.949 280.709 51.287 223.768 112.338 189.01Z" fill="url(#paint9_linear_673_12630)"/>
<path fill-rule="evenodd" clip-rule="evenodd" d="M113.817 183.592C174.868 148.834 273.514 149.42 334.148 184.901L339.347 187.943C361.195 200.728 375.127 216.298 381.155 232.614L386.665 231.572L384.6 252.028C384.568 255.179 384.25 258.329 383.648 261.462L383.594 261.994L383.53 262.058C379.559 281.521 364.574 300.33 338.592 315.122C277.541 349.881 178.895 349.295 118.261 313.814L113.062 310.772C52.4273 275.291 52.7654 218.351 113.817 183.592Z" fill="url(#paint10_linear_673_12630)"/>
<rect width="254.407" height="260.431" rx="127.203" transform="matrix(-0.869028 0.494764 0.863091 0.505048 223.865 101.446)" fill="url(#paint11_linear_673_12630)"/>
<rect x="-0.00500961" y="0.843732" width="255.124" height="260.46" rx="127.562" transform="matrix(-0.869028 0.494764 0.863091 0.505048 224.928 95.4079)" fill="url(#paint12_radial_673_12630)"/>
<rect x="-0.00500961" y="0.843732" width="255.124" height="260.46" rx="127.562" transform="matrix(-0.869028 0.494764 0.863091 0.505048 224.928 95.4079)" stroke="url(#paint13_linear_673_12630)" stroke-width="1.68778"/>
<rect x="-0.00500961" y="0.843732" width="255.124" height="260.46" rx="127.562" transform="matrix(-0.869028 0.494764 0.863091 0.505048 224.928 95.4079)" stroke="url(#paint14_linear_673_12630)" stroke-width="1.68778"/>
<path fill-rule="evenodd" clip-rule="evenodd" d="M175.267 217.394L166.764 224.038L249.688 260.958L258.192 254.315L175.267 217.394ZM231.178 232.621C233.802 230.689 236.827 229.351 240.251 228.607C243.863 227.799 249.156 227.494 256.13 227.691L291.018 228.668L301.916 220.154L263.684 219.557C257.088 219.414 252.174 219.511 248.942 219.847C245.742 220.159 242.674 220.87 239.741 221.98L239.473 221.861C246.637 212.062 244.473 204.604 232.981 199.487C225.986 196.373 218.573 195.489 210.742 196.835C202.911 198.182 195.517 201.573 188.56 207.009L183.148 211.237L192.517 215.408L196.404 212.371C200.991 208.787 205.699 206.597 210.527 205.802C215.355 205.006 219.929 205.57 224.247 207.493C228.887 209.558 231.31 212.261 231.518 215.601C231.756 218.916 229.767 222.222 225.549 225.517L221.8 228.446L231.178 232.621Z" fill="white"/>
<path d="M182.314 210.825L217.297 183.493L223.285 190.228L191.62 214.968L182.314 210.825Z" fill="white"/>
<defs>
<radialGradient id="paint0_diamond_673_12630" cx="0" cy="0" r="1" gradientUnits="userSpaceOnUse" gradientTransform="translate(114.274 115.605) rotate(67.5639) scale(678.569 550.013)">
<stop/>
<stop offset="0.28125"/>
<stop offset="0.546875" stop-color="#175E27"/>
<stop offset="0.724369" stop-color="#24A340"/>
<stop offset="0.839688" stop-color="#50E973"/>
<stop offset="1" stop-color="#5CE482"/>
</radialGradient>
<linearGradient id="paint1_linear_673_12630" x1="1.95274" y1="223.333" x2="470.972" y2="327.193" gradientUnits="userSpaceOnUse">
<stop stop-color="#050220"/>
<stop offset="0.494792" stop-color="white" stop-opacity="0"/>
<stop offset="1" stop-color="white"/>
</linearGradient>
<linearGradient id="paint2_linear_673_12630" x1="117.874" y1="675.42" x2="438.266" y2="659.413" gradientUnits="userSpaceOnUse">
<stop offset="0.0298615"/>
<stop offset="0.0689637" stop-color="#087D23"/>
<stop offset="0.117297" stop-color="#1F8C37"/>
<stop offset="0.357888" stop-color="#6AFF94"/>
<stop offset="0.532047" stop-color="#389763"/>
<stop offset="0.557944" stop-color="#B8FFCB"/>
<stop offset="0.585383" stop-color="#27883D"/>
<stop offset="0.625647" stop-color="#237736"/>
<stop offset="0.677455" stop-color="#175E27"/>
<stop offset="0.724833" stop-color="#36AB50"/>
<stop offset="0.765276" stop-color="#6AFF8B"/>
<stop offset="0.81218" stop-color="#6AFF94"/>
<stop offset="0.831945" stop-color="#C3B4FF"/>
<stop offset="0.839783" stop-color="white"/>
</linearGradient>
<linearGradient id="paint3_linear_673_12630" x1="81.1798" y1="670.247" x2="441.221" y2="653.501" gradientUnits="userSpaceOnUse">
<stop/>
<stop offset="0.0689637" stop-color="#087D23"/>
<stop offset="0.13" stop-color="#23873A"/>
<stop offset="0.27" stop-color="#B8FFCB"/>
<stop offset="0.357888" stop-color="#5CE482"/>
<stop offset="0.532047" stop-color="#3E8E50"/>
<stop offset="0.557944" stop-color="#9BF7B0"/>
<stop offset="0.585383" stop-color="#489559"/>
<stop offset="0.625647" stop-color="#237736"/>
<stop offset="0.677455" stop-color="#1E7933"/>
<stop offset="0.724833" stop-color="#36AB50"/>
<stop offset="0.765276" stop-color="#5CE482"/>
<stop offset="0.81218" stop-color="#6AFF94"/>
<stop offset="0.831945" stop-color="#9BF7B0"/>
<stop offset="0.839783" stop-color="white"/>
</linearGradient>
<linearGradient id="paint4_linear_673_12630" x1="69.915" y1="279.503" x2="318.398" y2="19.0217" gradientUnits="userSpaceOnUse">
<stop/>
<stop offset="0.0689637" stop-color="#087D23"/>
<stop offset="0.13" stop-color="#23873A"/>
<stop offset="0.27" stop-color="#B8FFCB"/>
<stop offset="0.357888" stop-color="#5CE482"/>
<stop offset="0.532047" stop-color="#3E8E50"/>
<stop offset="0.557944" stop-color="#9BF7B0"/>
<stop offset="0.585383" stop-color="#489559"/>
<stop offset="0.625647" stop-color="#237736"/>
<stop offset="0.677455" stop-color="#1E7933"/>
<stop offset="0.724833" stop-color="#36AB50"/>
<stop offset="0.765276" stop-color="#5CE482"/>
<stop offset="0.81218" stop-color="#6AFF94"/>
<stop offset="0.831945" stop-color="#9BF7B0"/>
<stop offset="0.839783" stop-color="white"/>
</linearGradient>
<radialGradient id="paint5_radial_673_12630" cx="0" cy="0" r="1" gradientUnits="userSpaceOnUse" gradientTransform="translate(-3.93725 186.623) rotate(-59.0121) scale(277.724 933.159)">
<stop stop-color="#35AE50"/>
<stop offset="0.235" stop-color="#3DB659"/>
<stop offset="0.39" stop-color="#64DE7F"/>
<stop offset="0.56" stop-color="#49B762"/>
<stop offset="0.716546" stop-color="#179433"/>
<stop offset="0.887916" stop-color="#0B8827"/>
<stop offset="1"/>
</radialGradient>
<linearGradient id="paint6_linear_673_12630" x1="207.396" y1="118.074" x2="260.711" y2="85.8267" gradientUnits="userSpaceOnUse">
<stop stop-color="#3CC25A" stop-opacity="0"/>
<stop offset="1" stop-color="#9BF7B0"/>
</linearGradient>
<linearGradient id="paint7_linear_673_12630" x1="10.5984" y1="63.1588" x2="91.7436" y2="98.1687" gradientUnits="userSpaceOnUse">
<stop stop-color="white"/>
<stop offset="0.398028" stop-color="#BBFFCE"/>
<stop offset="1" stop-color="#3CC25A" stop-opacity="0"/>
</linearGradient>
<linearGradient id="paint8_linear_673_12630" x1="172.679" y1="557.592" x2="244.729" y2="628.947" gradientUnits="userSpaceOnUse">
<stop stop-color="#686868"/>
<stop offset="0.32" stop-color="white"/>
</linearGradient>
<linearGradient id="paint9_linear_673_12630" x1="117.874" y1="316.42" x2="438.266" y2="300.413" gradientUnits="userSpaceOnUse">
<stop offset="0.0298615"/>
<stop offset="0.0689637" stop-color="#087D23"/>
<stop offset="0.117297" stop-color="#1F8C37"/>
<stop offset="0.357888" stop-color="#6AFF94"/>
<stop offset="0.532047" stop-color="#389763"/>
<stop offset="0.557944" stop-color="#B8FFCB"/>
<stop offset="0.585383" stop-color="#27883D"/>
<stop offset="0.625647" stop-color="#237736"/>
<stop offset="0.677455" stop-color="#175E27"/>
<stop offset="0.724833" stop-color="#36AB50"/>
<stop offset="0.765276" stop-color="#6AFF8B"/>
<stop offset="0.81218" stop-color="#6AFF94"/>
<stop offset="0.831945" stop-color="#C3B4FF"/>
<stop offset="0.839783" stop-color="white"/>
</linearGradient>
<linearGradient id="paint10_linear_673_12630" x1="81.1798" y1="311.248" x2="441.221" y2="294.501" gradientUnits="userSpaceOnUse">
<stop/>
<stop offset="0.0689637" stop-color="#087D23"/>
<stop offset="0.13" stop-color="#23873A"/>
<stop offset="0.27" stop-color="#B8FFCB"/>
<stop offset="0.357888" stop-color="#5CE482"/>
<stop offset="0.532047" stop-color="#3E8E50"/>
<stop offset="0.557944" stop-color="#9BF7B0"/>
<stop offset="0.585383" stop-color="#489559"/>
<stop offset="0.625647" stop-color="#237736"/>
<stop offset="0.677455" stop-color="#1E7933"/>
<stop offset="0.724833" stop-color="#36AB50"/>
<stop offset="0.765276" stop-color="#5CE482"/>
<stop offset="0.81218" stop-color="#6AFF94"/>
<stop offset="0.831945" stop-color="#9BF7B0"/>
<stop offset="0.839783" stop-color="white"/>
</linearGradient>
<linearGradient id="paint11_linear_673_12630" x1="69.915" y1="279.503" x2="318.398" y2="19.0217" gradientUnits="userSpaceOnUse">
<stop/>
<stop offset="0.0689637" stop-color="#087D23"/>
<stop offset="0.13" stop-color="#23873A"/>
<stop offset="0.27" stop-color="#B8FFCB"/>
<stop offset="0.357888" stop-color="#5CE482"/>
<stop offset="0.532047" stop-color="#3E8E50"/>
<stop offset="0.557944" stop-color="#9BF7B0"/>
<stop offset="0.585383" stop-color="#489559"/>
<stop offset="0.625647" stop-color="#237736"/>
<stop offset="0.677455" stop-color="#1E7933"/>
<stop offset="0.724833" stop-color="#36AB50"/>
<stop offset="0.765276" stop-color="#5CE482"/>
<stop offset="0.81218" stop-color="#6AFF94"/>
<stop offset="0.831945" stop-color="#9BF7B0"/>
<stop offset="0.839783" stop-color="white"/>
</linearGradient>
<radialGradient id="paint12_radial_673_12630" cx="0" cy="0" r="1" gradientUnits="userSpaceOnUse" gradientTransform="translate(-3.93725 186.623) rotate(-59.0121) scale(277.724 933.159)">
<stop stop-color="#35AE50"/>
<stop offset="0.235" stop-color="#3DB659"/>
<stop offset="0.39" stop-color="#64DE7F"/>
<stop offset="0.56" stop-color="#49B762"/>
<stop offset="0.716546" stop-color="#179433"/>
<stop offset="0.887916" stop-color="#0B8827"/>
<stop offset="1"/>
</radialGradient>
<linearGradient id="paint13_linear_673_12630" x1="207.396" y1="118.074" x2="260.711" y2="85.8267" gradientUnits="userSpaceOnUse">
<stop stop-color="#3CC25A" stop-opacity="0"/>
<stop offset="1" stop-color="#9BF7B0"/>
</linearGradient>
<linearGradient id="paint14_linear_673_12630" x1="10.5984" y1="63.1588" x2="91.7436" y2="98.1687" gradientUnits="userSpaceOnUse">
<stop stop-color="white"/>
<stop offset="0.398028" stop-color="#BBFFCE"/>
<stop offset="1" stop-color="#3CC25A" stop-opacity="0"/>
</linearGradient>
</defs>
</svg>
