<svg width="124" height="124" viewBox="0 0 124 124" fill="none" xmlns="http://www.w3.org/2000/svg">
<g clip-path="url(#clip0_1_2183)">
<g filter="url(#filter0_bi_1_2183)">
<path d="M64.665 25.4415C64.3959 24.9518 64.003 24.5411 63.5257 24.2506L37.7059 8.47154C37.1995 8.16244 36.6177 7.9989 36.0244 7.9989C35.4311 7.9989 34.8493 8.16244 34.3429 8.47154L8.52314 24.2506C8.04576 24.5411 7.65293 24.9518 7.38384 25.4415L36.0244 42.9473L64.665 25.4415Z" fill="url(#paint0_linear_1_2183)"/>
<path d="M7.38384 25.4415C7.11763 25.9203 6.97461 26.4617 6.9741 27.0095V55.6629C6.97441 56.2158 7.11674 56.7593 7.38744 57.2414C7.65815 57.7235 8.04815 58.1279 8.52006 58.416L34.3398 74.195C34.846 74.5048 35.4279 74.6689 36.0213 74.6695L36.0244 42.9473L7.38384 25.4415Z" fill="url(#paint1_linear_1_2183)"/>
<path d="M64.665 25.4415C64.9312 25.9203 65.068 26.4617 65.0686 27.0095V55.6629C65.0682 56.2158 64.9259 56.7593 64.6552 57.2414C64.3845 57.7235 63.9945 58.1279 63.5226 58.416L37.7028 74.195C37.1966 74.5048 36.6148 74.6689 36.0213 74.6695L36.0244 42.9473L64.665 25.4415Z" fill="url(#paint2_linear_1_2183)"/>
</g>
<g filter="url(#filter1_bi_1_2183)">
<path d="M64.665 25.4415C64.3959 24.9518 64.003 24.5411 63.5257 24.2506L37.7059 8.47154C37.1995 8.16244 36.6177 7.9989 36.0244 7.9989C35.4311 7.9989 34.8493 8.16244 34.3429 8.47154L8.52314 24.2506C8.04576 24.5411 7.65293 24.9518 7.38384 25.4415L36.0244 42.9473L64.665 25.4415Z" fill="url(#paint3_linear_1_2183)"/>
<path d="M7.38384 25.4415C7.11763 25.9203 6.97461 26.4617 6.9741 27.0095V55.6629C6.97441 56.2158 7.11674 56.7593 7.38744 57.2414C7.65815 57.7235 8.04815 58.1279 8.52006 58.416L34.3398 74.195C34.846 74.5048 35.4279 74.6689 36.0213 74.6695L36.0244 42.9473L7.38384 25.4415Z" fill="url(#paint4_linear_1_2183)"/>
<path d="M64.665 25.4415C64.9312 25.9203 65.068 26.4617 65.0686 27.0095V55.6629C65.0682 56.2158 64.9259 56.7593 64.6552 57.2414C64.3845 57.7235 63.9945 58.1279 63.5226 58.416L37.7028 74.195C37.1966 74.5048 36.6148 74.6689 36.0213 74.6695L36.0244 42.9473L64.665 25.4415Z" fill="url(#paint5_linear_1_2183)"/>
</g>
<g filter="url(#filter2_bi_1_2183)">
<path d="M71.5359 21.6277C71.2022 21.0204 70.7151 20.5112 70.1232 20.151L38.1085 0.586042C37.4806 0.202774 36.7592 0 36.0236 0C35.2879 0 34.5665 0.202774 33.9386 0.586042L1.92393 20.151C1.33202 20.5112 0.844931 21.0204 0.511284 21.6277L36.0236 43.3336L71.5359 21.6277Z" fill="#F1F1F1" fill-opacity="0.1"/>
<path d="M71.5359 21.6277C71.2022 21.0204 70.7151 20.5112 70.1232 20.151L38.1085 0.586042C37.4806 0.202774 36.7592 0 36.0236 0C35.2879 0 34.5665 0.202774 33.9386 0.586042L1.92393 20.151C1.33202 20.5112 0.844931 21.0204 0.511284 21.6277L36.0236 43.3336L71.5359 21.6277Z" fill="url(#paint6_linear_1_2183)" fill-opacity="0.2"/>
<path d="M70.045 20.279L70.0452 20.2791C70.5739 20.6009 71.0157 21.0462 71.3331 21.5758L36.0236 43.1578L0.714006 21.5758C1.03144 21.0462 1.47321 20.6009 2.00191 20.2791L2.00215 20.279L34.0168 0.714076C34.6211 0.345173 35.3155 0.15 36.0236 0.15C36.7316 0.15 37.426 0.345173 38.0304 0.714076L70.045 20.279Z" stroke="url(#paint7_linear_1_2183)" stroke-opacity="0.1" stroke-width="0.3"/>
</g>
<g filter="url(#filter3_bi_1_2183)">
<path d="M0.504231 21.631C0.174154 22.2247 0.000629477 22.8926 0 23.5719L0 59.1002C0.000381681 59.7857 0.176859 60.4596 0.512514 61.0574C0.848168 61.6551 1.33174 62.1566 1.91688 62.5137L33.9316 82.0787C34.5592 82.4627 35.2807 82.6663 36.0165 82.667V43.3369L0.504231 21.631Z" fill="#F1F1F1" fill-opacity="0.1"/>
<path d="M0.504231 21.631C0.174154 22.2247 0.000629477 22.8926 0 23.5719L0 59.1002C0.000381681 59.7857 0.176859 60.4596 0.512514 61.0574C0.848168 61.6551 1.33174 62.1566 1.91688 62.5137L33.9316 82.0787C34.5592 82.4627 35.2807 82.6663 36.0165 82.667V43.3369L0.504231 21.631Z" fill="url(#paint8_linear_1_2183)" fill-opacity="0.2"/>
<path d="M0.15 23.5719C0.150567 22.9704 0.292015 22.3781 0.562089 21.8421L35.8665 43.421V82.5139C35.2105 82.4877 34.5712 82.2942 34.0098 81.9507L34.0098 81.9507L1.9951 62.3857L1.99503 62.3857C1.43183 62.0419 0.966376 61.5592 0.643303 60.9839C0.32023 60.4086 0.150367 59.7599 0.15 59.1002V23.5719Z" stroke="url(#paint9_linear_1_2183)" stroke-opacity="0.1" stroke-width="0.3"/>
</g>
<g filter="url(#filter4_bi_1_2183)">
<path d="M71.5265 21.631C71.8565 22.2247 72.0301 22.8926 72.0307 23.5719V59.1002C72.0303 59.7857 71.8538 60.4596 71.5182 61.0574C71.1825 61.6551 70.6989 62.1566 70.1138 62.5137L38.0991 82.0787C37.4715 82.4627 36.75 82.6663 36.0142 82.667V43.3369L71.5265 21.631Z" fill="#F1F1F1" fill-opacity="0.1"/>
<path d="M71.5265 21.631C71.8565 22.2247 72.0301 22.8926 72.0307 23.5719V59.1002C72.0303 59.7857 71.8538 60.4596 71.5182 61.0574C71.1825 61.6551 70.6989 62.1566 70.1138 62.5137L38.0991 82.0787C37.4715 82.4627 36.75 82.6663 36.0142 82.667V43.3369L71.5265 21.631Z" fill="url(#paint10_linear_1_2183)" fill-opacity="0.2"/>
<path d="M70.0357 62.3857L70.0356 62.3857L38.0209 81.9507L38.0208 81.9507C37.4594 82.2942 36.8201 82.4877 36.1642 82.5139V43.421L71.4686 21.8421C71.7387 22.3781 71.8801 22.9704 71.8807 23.572V59.1001C71.8803 59.7599 71.7105 60.4086 71.3874 60.9839C71.0643 61.5592 70.5989 62.0419 70.0357 62.3857Z" stroke="url(#paint11_linear_1_2183)" stroke-opacity="0.1" stroke-width="0.3"/>
</g>
<path d="M99.7383 21.5649H84.6804L96.2528 9.99244L92.4411 6.18079L76.2672 22.3547C75.2132 23.4087 75.2132 25.1123 76.2672 26.1663L92.4411 42.3403L96.2528 38.5286L84.6804 26.9562H99.7383C107.17 26.9562 113.217 33.0025 113.217 40.4344H118.608C118.608 30.0292 110.141 21.5649 99.7383 21.5649Z" fill="url(#paint12_linear_1_2183)"/>
<path d="M31.5604 81.66L27.7488 85.4717L39.3212 97.0441H24.2633C16.8314 97.0441 10.785 90.9978 10.785 83.5659H5.39372C5.39372 93.9711 13.8608 102.435 24.2633 102.435H39.3212L27.7488 114.008L31.5604 117.82L47.7343 101.646C48.7883 100.592 48.7883 98.8879 47.7343 97.834L31.5604 81.66Z" fill="url(#paint13_linear_1_2183)"/>
<path d="M87.8333 113.667C102.101 113.667 113.667 102.101 113.667 87.8333C113.667 73.566 102.101 62 87.8333 62C73.566 62 62 73.566 62 87.8333C62 102.101 73.566 113.667 87.8333 113.667Z" fill="url(#paint14_linear_1_2183)"/>
<g filter="url(#filter5_bi_1_2183)">
<path d="M87.8333 124C107.808 124 124 107.808 124 87.8333C124 67.859 107.808 51.6666 87.8333 51.6666C67.859 51.6666 51.6667 67.859 51.6667 87.8333C51.6667 107.808 67.859 124 87.8333 124Z" fill="#F1F1F1" fill-opacity="0.1"/>
<path d="M87.8333 124C107.808 124 124 107.808 124 87.8333C124 67.859 107.808 51.6666 87.8333 51.6666C67.859 51.6666 51.6667 67.859 51.6667 87.8333C51.6667 107.808 67.859 124 87.8333 124Z" fill="url(#paint15_linear_1_2183)" fill-opacity="0.2"/>
<path d="M123.85 87.8333C123.85 107.725 107.725 123.85 87.8333 123.85C67.9419 123.85 51.8167 107.725 51.8167 87.8333C51.8167 67.9418 67.9419 51.8166 87.8333 51.8166C107.725 51.8166 123.85 67.9418 123.85 87.8333Z" stroke="url(#paint16_linear_1_2183)" stroke-opacity="0.1" stroke-width="0.3"/>
</g>
</g>
<defs>
<filter id="filter0_bi_1_2183" x="4.55461" y="5.57941" width="62.9334" height="71.5095" filterUnits="userSpaceOnUse" color-interpolation-filters="sRGB">
<feFlood flood-opacity="0" result="BackgroundImageFix"/>
<feGaussianBlur in="BackgroundImageFix" stdDeviation="1.20974"/>
<feComposite in2="SourceAlpha" operator="in" result="effect1_backgroundBlur_1_2183"/>
<feBlend mode="normal" in="SourceGraphic" in2="effect1_backgroundBlur_1_2183" result="shape"/>
<feColorMatrix in="SourceAlpha" type="matrix" values="0 0 0 0 0 0 0 0 0 0 0 0 0 0 0 0 0 0 127 0" result="hardAlpha"/>
<feOffset dy="0.403248"/>
<feGaussianBlur stdDeviation="0.806497"/>
<feComposite in2="hardAlpha" operator="arithmetic" k2="-1" k3="1"/>
<feColorMatrix type="matrix" values="0 0 0 0 1 0 0 0 0 1 0 0 0 0 1 0 0 0 0.4 0"/>
<feBlend mode="normal" in2="shape" result="effect2_innerShadow_1_2183"/>
</filter>
<filter id="filter1_bi_1_2183" x="4.55461" y="5.57941" width="62.9334" height="71.5095" filterUnits="userSpaceOnUse" color-interpolation-filters="sRGB">
<feFlood flood-opacity="0" result="BackgroundImageFix"/>
<feGaussianBlur in="BackgroundImageFix" stdDeviation="1.20974"/>
<feComposite in2="SourceAlpha" operator="in" result="effect1_backgroundBlur_1_2183"/>
<feBlend mode="normal" in="SourceGraphic" in2="effect1_backgroundBlur_1_2183" result="shape"/>
<feColorMatrix in="SourceAlpha" type="matrix" values="0 0 0 0 0 0 0 0 0 0 0 0 0 0 0 0 0 0 127 0" result="hardAlpha"/>
<feOffset dy="0.403248"/>
<feGaussianBlur stdDeviation="0.806497"/>
<feComposite in2="hardAlpha" operator="arithmetic" k2="-1" k3="1"/>
<feColorMatrix type="matrix" values="0 0 0 0 1 0 0 0 0 1 0 0 0 0 1 0 0 0 0.4 0"/>
<feBlend mode="normal" in2="shape" result="effect2_innerShadow_1_2183"/>
</filter>
<filter id="filter2_bi_1_2183" x="-5.48872" y="-6" width="83.0246" height="55.3336" filterUnits="userSpaceOnUse" color-interpolation-filters="sRGB">
<feFlood flood-opacity="0" result="BackgroundImageFix"/>
<feGaussianBlur in="BackgroundImageFix" stdDeviation="3"/>
<feComposite in2="SourceAlpha" operator="in" result="effect1_backgroundBlur_1_2183"/>
<feBlend mode="normal" in="SourceGraphic" in2="effect1_backgroundBlur_1_2183" result="shape"/>
<feColorMatrix in="SourceAlpha" type="matrix" values="0 0 0 0 0 0 0 0 0 0 0 0 0 0 0 0 0 0 127 0" result="hardAlpha"/>
<feOffset dy="2"/>
<feGaussianBlur stdDeviation="1.5"/>
<feComposite in2="hardAlpha" operator="arithmetic" k2="-1" k3="1"/>
<feColorMatrix type="matrix" values="0 0 0 0 1 0 0 0 0 1 0 0 0 0 1 0 0 0 0.4 0"/>
<feBlend mode="normal" in2="shape" result="effect2_innerShadow_1_2183"/>
</filter>
<filter id="filter3_bi_1_2183" x="-6" y="15.631" width="48.0165" height="73.036" filterUnits="userSpaceOnUse" color-interpolation-filters="sRGB">
<feFlood flood-opacity="0" result="BackgroundImageFix"/>
<feGaussianBlur in="BackgroundImageFix" stdDeviation="3"/>
<feComposite in2="SourceAlpha" operator="in" result="effect1_backgroundBlur_1_2183"/>
<feBlend mode="normal" in="SourceGraphic" in2="effect1_backgroundBlur_1_2183" result="shape"/>
<feColorMatrix in="SourceAlpha" type="matrix" values="0 0 0 0 0 0 0 0 0 0 0 0 0 0 0 0 0 0 127 0" result="hardAlpha"/>
<feOffset dy="2"/>
<feGaussianBlur stdDeviation="1.5"/>
<feComposite in2="hardAlpha" operator="arithmetic" k2="-1" k3="1"/>
<feColorMatrix type="matrix" values="0 0 0 0 1 0 0 0 0 1 0 0 0 0 1 0 0 0 0.4 0"/>
<feBlend mode="normal" in2="shape" result="effect2_innerShadow_1_2183"/>
</filter>
<filter id="filter4_bi_1_2183" x="30.0142" y="15.631" width="48.0165" height="73.036" filterUnits="userSpaceOnUse" color-interpolation-filters="sRGB">
<feFlood flood-opacity="0" result="BackgroundImageFix"/>
<feGaussianBlur in="BackgroundImageFix" stdDeviation="3"/>
<feComposite in2="SourceAlpha" operator="in" result="effect1_backgroundBlur_1_2183"/>
<feBlend mode="normal" in="SourceGraphic" in2="effect1_backgroundBlur_1_2183" result="shape"/>
<feColorMatrix in="SourceAlpha" type="matrix" values="0 0 0 0 0 0 0 0 0 0 0 0 0 0 0 0 0 0 127 0" result="hardAlpha"/>
<feOffset dy="2"/>
<feGaussianBlur stdDeviation="1.5"/>
<feComposite in2="hardAlpha" operator="arithmetic" k2="-1" k3="1"/>
<feColorMatrix type="matrix" values="0 0 0 0 1 0 0 0 0 1 0 0 0 0 1 0 0 0 0.4 0"/>
<feBlend mode="normal" in2="shape" result="effect2_innerShadow_1_2183"/>
</filter>
<filter id="filter5_bi_1_2183" x="45.6667" y="45.6666" width="84.3333" height="84.3334" filterUnits="userSpaceOnUse" color-interpolation-filters="sRGB">
<feFlood flood-opacity="0" result="BackgroundImageFix"/>
<feGaussianBlur in="BackgroundImageFix" stdDeviation="3"/>
<feComposite in2="SourceAlpha" operator="in" result="effect1_backgroundBlur_1_2183"/>
<feBlend mode="normal" in="SourceGraphic" in2="effect1_backgroundBlur_1_2183" result="shape"/>
<feColorMatrix in="SourceAlpha" type="matrix" values="0 0 0 0 0 0 0 0 0 0 0 0 0 0 0 0 0 0 127 0" result="hardAlpha"/>
<feOffset dy="2"/>
<feGaussianBlur stdDeviation="1.5"/>
<feComposite in2="hardAlpha" operator="arithmetic" k2="-1" k3="1"/>
<feColorMatrix type="matrix" values="0 0 0 0 1 0 0 0 0 1 0 0 0 0 1 0 0 0 0.4 0"/>
<feBlend mode="normal" in2="shape" result="effect2_innerShadow_1_2183"/>
</filter>
<linearGradient id="paint0_linear_1_2183" x1="9.3947" y1="21.333" x2="73.0123" y2="29.0322" gradientUnits="userSpaceOnUse">
<stop stop-color="#34F45F"/>
<stop offset="1" stop-color="#237736"/>
</linearGradient>
<linearGradient id="paint1_linear_1_2183" x1="9.3947" y1="21.333" x2="73.0123" y2="29.0322" gradientUnits="userSpaceOnUse">
<stop stop-color="#34F45F"/>
<stop offset="1" stop-color="#237736"/>
</linearGradient>
<linearGradient id="paint2_linear_1_2183" x1="9.3947" y1="21.333" x2="73.0123" y2="29.0322" gradientUnits="userSpaceOnUse">
<stop stop-color="#34F45F"/>
<stop offset="1" stop-color="#237736"/>
</linearGradient>
<linearGradient id="paint3_linear_1_2183" x1="9.3947" y1="21.333" x2="73.0123" y2="29.0322" gradientUnits="userSpaceOnUse">
<stop stop-color="#34F45F"/>
<stop offset="1" stop-color="#237736"/>
</linearGradient>
<linearGradient id="paint4_linear_1_2183" x1="9.3947" y1="21.333" x2="73.0123" y2="29.0322" gradientUnits="userSpaceOnUse">
<stop stop-color="#34F45F"/>
<stop offset="1" stop-color="#237736"/>
</linearGradient>
<linearGradient id="paint5_linear_1_2183" x1="9.3947" y1="21.333" x2="73.0123" y2="29.0322" gradientUnits="userSpaceOnUse">
<stop stop-color="#34F45F"/>
<stop offset="1" stop-color="#237736"/>
</linearGradient>
<linearGradient id="paint6_linear_1_2183" x1="3.47064" y1="8.66673" x2="78.4988" y2="25.7462" gradientUnits="userSpaceOnUse">
<stop stop-color="#66FECB"/>
<stop offset="1" stop-color="#8940FF"/>
</linearGradient>
<linearGradient id="paint7_linear_1_2183" x1="2.7308" y1="1.96971" x2="71.5359" y2="1.96971" gradientUnits="userSpaceOnUse">
<stop stop-color="#C8A6FF"/>
<stop offset="1" stop-color="#69CFB5"/>
</linearGradient>
<linearGradient id="paint8_linear_1_2183" x1="1.50069" y1="33.8382" x2="41.252" y2="37.0961" gradientUnits="userSpaceOnUse">
<stop stop-color="#66FECB"/>
<stop offset="1" stop-color="#8940FF"/>
</linearGradient>
<linearGradient id="paint9_linear_1_2183" x1="1.12552" y1="24.4053" x2="36.0165" y2="24.4053" gradientUnits="userSpaceOnUse">
<stop stop-color="#C8A6FF"/>
<stop offset="1" stop-color="#69CFB5"/>
</linearGradient>
<linearGradient id="paint10_linear_1_2183" x1="37.5149" y1="33.8382" x2="77.2662" y2="37.0961" gradientUnits="userSpaceOnUse">
<stop stop-color="#66FECB"/>
<stop offset="1" stop-color="#8940FF"/>
</linearGradient>
<linearGradient id="paint11_linear_1_2183" x1="37.1397" y1="24.4053" x2="72.0307" y2="24.4053" gradientUnits="userSpaceOnUse">
<stop stop-color="#C8A6FF"/>
<stop offset="1" stop-color="#69CFB5"/>
</linearGradient>
<linearGradient id="paint12_linear_1_2183" x1="77.2739" y1="13.4127" x2="123.917" y2="21.1399" gradientUnits="userSpaceOnUse">
<stop stop-color="#34F45F"/>
<stop offset="1" stop-color="#237736"/>
</linearGradient>
<linearGradient id="paint13_linear_1_2183" x1="7.19085" y1="88.8919" x2="53.8341" y2="96.6192" gradientUnits="userSpaceOnUse">
<stop stop-color="#34F45F"/>
<stop offset="1" stop-color="#237736"/>
</linearGradient>
<linearGradient id="paint14_linear_1_2183" x1="64.1528" y1="72.3333" x2="120.474" y2="80.1557" gradientUnits="userSpaceOnUse">
<stop stop-color="#34F45F"/>
<stop offset="1" stop-color="#237736"/>
</linearGradient>
<linearGradient id="paint15_linear_1_2183" x1="54.6806" y1="66.1333" x2="133.53" y2="77.0846" gradientUnits="userSpaceOnUse">
<stop stop-color="#66FECB"/>
<stop offset="1" stop-color="#8940FF"/>
</linearGradient>
<linearGradient id="paint16_linear_1_2183" x1="53.9271" y1="54.9545" x2="124" y2="54.9545" gradientUnits="userSpaceOnUse">
<stop stop-color="#C8A6FF"/>
<stop offset="1" stop-color="#69CFB5"/>
</linearGradient>
<clipPath id="clip0_1_2183">
<rect width="124" height="124" fill="white"/>
</clipPath>
</defs>
</svg>
