<svg width="124" height="124" viewBox="0 0 124 124" fill="none" xmlns="http://www.w3.org/2000/svg">
<path d="M32.3489 76.0582H10.7837C9.29494 76.0582 8.08804 76.6705 8.08804 77.4258V102.042C8.08804 102.797 9.29494 103.409 10.7837 103.409H32.3489C33.8377 103.409 35.0446 102.797 35.0446 102.042V77.4258C35.0446 76.6705 33.8377 76.0582 32.3489 76.0582Z" fill="url(#paint0_linear_1_2200)"/>
<path d="M72.7842 35.4174H51.2189C49.7301 35.4174 48.5233 36.3127 48.5233 37.4172V101.411C48.5233 102.516 49.7301 103.411 51.2189 103.411H72.7842C74.273 103.411 75.4798 102.516 75.4798 101.411V37.4172C75.4798 36.3127 74.273 35.4174 72.7842 35.4174Z" fill="url(#paint1_linear_1_2200)"/>
<path d="M113.214 82.5015H91.6491C90.1603 82.5015 88.9535 83.2815 88.9535 84.2437V101.666C88.9535 102.629 90.1603 103.409 91.6491 103.409H113.214C114.703 103.409 115.91 102.629 115.91 101.666V84.2437C115.91 83.2815 114.703 82.5015 113.214 82.5015Z" fill="url(#paint2_linear_1_2200)"/>
<path d="M110.971 111.07H13.029C11.541 111.07 0 115.398 0 116.886C0 118.374 1.20765 119.582 2.69565 119.582H121.304C122.792 119.582 124 118.374 124 116.886C124 115.398 112.459 111.07 110.971 111.07Z" fill="url(#paint3_linear_1_2200)"/>
<g filter="url(#filter0_bi_1_2200)">
<path d="M32.3489 44.7378H10.7837C9.29494 44.7378 8.08804 46.0511 8.08804 47.6713V100.475C8.08804 102.095 9.29494 103.408 10.7837 103.408H32.3489C33.8377 103.408 35.0446 102.095 35.0446 100.475V47.6713C35.0446 46.0511 33.8377 44.7378 32.3489 44.7378Z" fill="#F1F1F1" fill-opacity="0.1"/>
<path d="M32.3489 44.7378H10.7837C9.29494 44.7378 8.08804 46.0511 8.08804 47.6713V100.475C8.08804 102.095 9.29494 103.408 10.7837 103.408H32.3489C33.8377 103.408 35.0446 102.095 35.0446 100.475V47.6713C35.0446 46.0511 33.8377 44.7378 32.3489 44.7378Z" fill="url(#paint4_linear_1_2200)" fill-opacity="0.2"/>
<path d="M10.7837 44.8878H32.3489C33.7432 44.8878 34.8946 46.1218 34.8946 47.6713V100.475C34.8946 102.024 33.7432 103.258 32.3489 103.258H10.7837C9.38947 103.258 8.23804 102.024 8.23804 100.475V47.6713C8.23804 46.1218 9.38947 44.8878 10.7837 44.8878Z" stroke="url(#paint5_linear_1_2200)" stroke-opacity="0.1" stroke-width="0.3"/>
</g>
<g filter="url(#filter1_bi_1_2200)">
<path d="M72.7842 4.4187H51.2189C49.7301 4.4187 48.5233 5.72224 48.5233 7.3302V100.498C48.5233 102.106 49.7301 103.41 51.2189 103.41H72.7842C74.273 103.41 75.4798 102.106 75.4798 100.498V7.3302C75.4798 5.72224 74.273 4.4187 72.7842 4.4187Z" fill="#F1F1F1" fill-opacity="0.1"/>
<path d="M72.7842 4.4187H51.2189C49.7301 4.4187 48.5233 5.72224 48.5233 7.3302V100.498C48.5233 102.106 49.7301 103.41 51.2189 103.41H72.7842C74.273 103.41 75.4798 102.106 75.4798 100.498V7.3302C75.4798 5.72224 74.273 4.4187 72.7842 4.4187Z" fill="url(#paint6_linear_1_2200)" fill-opacity="0.2"/>
<path d="M51.2189 4.5687H72.7842C74.1795 4.5687 75.3298 5.79399 75.3298 7.3302V100.498C75.3298 102.034 74.1795 103.26 72.7842 103.26H51.2189C49.8236 103.26 48.6733 102.034 48.6733 100.498V7.3302C48.6733 5.79399 49.8236 4.5687 51.2189 4.5687Z" stroke="url(#paint7_linear_1_2200)" stroke-opacity="0.1" stroke-width="0.3"/>
</g>
<g filter="url(#filter2_bi_1_2200)">
<path d="M113.214 68.2048H91.6491C90.1603 68.2048 88.9535 69.5182 88.9535 71.1384V100.474C88.9535 102.094 90.1603 103.407 91.6491 103.407H113.214C114.703 103.407 115.91 102.094 115.91 100.474V71.1384C115.91 69.5182 114.703 68.2048 113.214 68.2048Z" fill="#F1F1F1" fill-opacity="0.1"/>
<path d="M113.214 68.2048H91.6491C90.1603 68.2048 88.9535 69.5182 88.9535 71.1384V100.474C88.9535 102.094 90.1603 103.407 91.6491 103.407H113.214C114.703 103.407 115.91 102.094 115.91 100.474V71.1384C115.91 69.5182 114.703 68.2048 113.214 68.2048Z" fill="url(#paint8_linear_1_2200)" fill-opacity="0.2"/>
<path d="M91.6491 68.3548H113.214C114.609 68.3548 115.76 69.5888 115.76 71.1384V100.474C115.76 102.023 114.609 103.257 113.214 103.257H91.6491C90.2548 103.257 89.1035 102.023 89.1035 100.474V71.1384C89.1035 69.5888 90.2548 68.3548 91.6491 68.3548Z" stroke="url(#paint9_linear_1_2200)" stroke-opacity="0.1" stroke-width="0.3"/>
</g>
<defs>
<filter id="filter0_bi_1_2200" x="2.08804" y="38.7378" width="38.9565" height="70.6707" filterUnits="userSpaceOnUse" color-interpolation-filters="sRGB">
<feFlood flood-opacity="0" result="BackgroundImageFix"/>
<feGaussianBlur in="BackgroundImageFix" stdDeviation="3"/>
<feComposite in2="SourceAlpha" operator="in" result="effect1_backgroundBlur_1_2200"/>
<feBlend mode="normal" in="SourceGraphic" in2="effect1_backgroundBlur_1_2200" result="shape"/>
<feColorMatrix in="SourceAlpha" type="matrix" values="0 0 0 0 0 0 0 0 0 0 0 0 0 0 0 0 0 0 127 0" result="hardAlpha"/>
<feOffset dy="2"/>
<feGaussianBlur stdDeviation="1.5"/>
<feComposite in2="hardAlpha" operator="arithmetic" k2="-1" k3="1"/>
<feColorMatrix type="matrix" values="0 0 0 0 1 0 0 0 0 1 0 0 0 0 1 0 0 0 0.4 0"/>
<feBlend mode="normal" in2="shape" result="effect2_innerShadow_1_2200"/>
</filter>
<filter id="filter1_bi_1_2200" x="42.5233" y="-1.5813" width="38.9565" height="110.991" filterUnits="userSpaceOnUse" color-interpolation-filters="sRGB">
<feFlood flood-opacity="0" result="BackgroundImageFix"/>
<feGaussianBlur in="BackgroundImageFix" stdDeviation="3"/>
<feComposite in2="SourceAlpha" operator="in" result="effect1_backgroundBlur_1_2200"/>
<feBlend mode="normal" in="SourceGraphic" in2="effect1_backgroundBlur_1_2200" result="shape"/>
<feColorMatrix in="SourceAlpha" type="matrix" values="0 0 0 0 0 0 0 0 0 0 0 0 0 0 0 0 0 0 127 0" result="hardAlpha"/>
<feOffset dy="2"/>
<feGaussianBlur stdDeviation="1.5"/>
<feComposite in2="hardAlpha" operator="arithmetic" k2="-1" k3="1"/>
<feColorMatrix type="matrix" values="0 0 0 0 1 0 0 0 0 1 0 0 0 0 1 0 0 0 0.4 0"/>
<feBlend mode="normal" in2="shape" result="effect2_innerShadow_1_2200"/>
</filter>
<filter id="filter2_bi_1_2200" x="82.9535" y="62.2048" width="38.9565" height="47.2024" filterUnits="userSpaceOnUse" color-interpolation-filters="sRGB">
<feFlood flood-opacity="0" result="BackgroundImageFix"/>
<feGaussianBlur in="BackgroundImageFix" stdDeviation="3"/>
<feComposite in2="SourceAlpha" operator="in" result="effect1_backgroundBlur_1_2200"/>
<feBlend mode="normal" in="SourceGraphic" in2="effect1_backgroundBlur_1_2200" result="shape"/>
<feColorMatrix in="SourceAlpha" type="matrix" values="0 0 0 0 0 0 0 0 0 0 0 0 0 0 0 0 0 0 127 0" result="hardAlpha"/>
<feOffset dy="2"/>
<feGaussianBlur stdDeviation="1.5"/>
<feComposite in2="hardAlpha" operator="arithmetic" k2="-1" k3="1"/>
<feColorMatrix type="matrix" values="0 0 0 0 1 0 0 0 0 1 0 0 0 0 1 0 0 0 0.4 0"/>
<feBlend mode="normal" in2="shape" result="effect2_innerShadow_1_2200"/>
</filter>
<linearGradient id="paint0_linear_1_2200" x1="9.21123" y1="81.5285" x2="38.612" y2="85.553" gradientUnits="userSpaceOnUse">
<stop stop-color="#34F45F"/>
<stop offset="1" stop-color="#237736"/>
</linearGradient>
<linearGradient id="paint1_linear_1_2200" x1="49.6465" y1="49.0161" x2="79.5076" y2="50.6604" gradientUnits="userSpaceOnUse">
<stop stop-color="#34F45F"/>
<stop offset="1" stop-color="#237736"/>
</linearGradient>
<linearGradient id="paint2_linear_1_2200" x1="90.0766" y1="86.6829" x2="119.098" y2="91.8799" gradientUnits="userSpaceOnUse">
<stop stop-color="#34F45F"/>
<stop offset="1" stop-color="#237736"/>
</linearGradient>
<linearGradient id="paint3_linear_1_2200" x1="5.16666" y1="112.772" x2="32.2125" y2="167.497" gradientUnits="userSpaceOnUse">
<stop stop-color="#34F45F"/>
<stop offset="1" stop-color="#237736"/>
</linearGradient>
<linearGradient id="paint4_linear_1_2200" x1="9.21123" y1="56.4719" x2="39.0414" y2="58.3755" gradientUnits="userSpaceOnUse">
<stop stop-color="#66FECB"/>
<stop offset="1" stop-color="#8940FF"/>
</linearGradient>
<linearGradient id="paint5_linear_1_2200" x1="8.93043" y1="47.4046" x2="35.0446" y2="47.4046" gradientUnits="userSpaceOnUse">
<stop stop-color="#C8A6FF"/>
<stop offset="1" stop-color="#69CFB5"/>
</linearGradient>
<linearGradient id="paint6_linear_1_2200" x1="49.6465" y1="24.2169" x2="79.5554" y2="25.3481" gradientUnits="userSpaceOnUse">
<stop stop-color="#66FECB"/>
<stop offset="1" stop-color="#8940FF"/>
</linearGradient>
<linearGradient id="paint7_linear_1_2200" x1="49.3657" y1="8.91829" x2="75.4798" y2="8.91829" gradientUnits="userSpaceOnUse">
<stop stop-color="#C8A6FF"/>
<stop offset="1" stop-color="#69CFB5"/>
</linearGradient>
<linearGradient id="paint8_linear_1_2200" x1="90.0766" y1="75.2453" x2="119.693" y2="78.3952" gradientUnits="userSpaceOnUse">
<stop stop-color="#66FECB"/>
<stop offset="1" stop-color="#8940FF"/>
</linearGradient>
<linearGradient id="paint9_linear_1_2200" x1="89.7959" y1="69.8049" x2="115.91" y2="69.8049" gradientUnits="userSpaceOnUse">
<stop stop-color="#C8A6FF"/>
<stop offset="1" stop-color="#69CFB5"/>
</linearGradient>
</defs>
</svg>
