<svg width="123" height="123" viewBox="0 0 123 123" fill="none" xmlns="http://www.w3.org/2000/svg">
<g filter="url(#filter0_bi_1_2212)">
<path d="M41.4058 52.6392C41.2335 52.3255 40.982 52.0626 40.6763 51.8766L24.1431 41.7727C23.8188 41.5748 23.4463 41.4701 23.0664 41.4701C22.6864 41.4701 22.3139 41.5748 21.9896 41.7727L5.45643 51.8766C5.15075 52.0626 4.89921 52.3255 4.72691 52.6392L23.0664 63.8486L41.4058 52.6392Z" fill="url(#paint0_linear_1_2212)"/>
<path d="M4.72691 52.6392C4.55645 52.9458 4.46486 53.2924 4.46454 53.6432V71.9909C4.46474 72.3449 4.55587 72.6929 4.72921 73.0016C4.90255 73.3103 5.15228 73.5693 5.45446 73.7537L21.9877 83.8575C22.3118 84.0559 22.6844 84.161 23.0644 84.1613L23.0664 63.8486L4.72691 52.6392Z" fill="url(#paint1_linear_1_2212)"/>
<path d="M41.4058 52.6392C41.5763 52.9458 41.6639 53.2924 41.6642 53.6432V71.9909C41.664 72.3449 41.5729 72.6929 41.3996 73.0016C41.2262 73.3103 40.9765 73.5693 40.6743 73.7537L24.1411 83.8575C23.817 84.0559 23.4444 84.161 23.0644 84.1613L23.0664 63.8486L41.4058 52.6392Z" fill="url(#paint2_linear_1_2212)"/>
</g>
<g filter="url(#filter1_bi_1_2212)">
<path d="M41.4058 52.6392C41.2335 52.3255 40.982 52.0626 40.6763 51.8766L24.1431 41.7727C23.8188 41.5748 23.4463 41.4701 23.0664 41.4701C22.6864 41.4701 22.3139 41.5748 21.9896 41.7727L5.45643 51.8766C5.15075 52.0626 4.89921 52.3255 4.72691 52.6392L23.0664 63.8486L41.4058 52.6392Z" fill="url(#paint3_linear_1_2212)"/>
<path d="M4.72691 52.6392C4.55645 52.9458 4.46486 53.2924 4.46454 53.6432V71.9909C4.46474 72.3449 4.55587 72.6929 4.72921 73.0016C4.90255 73.3103 5.15228 73.5693 5.45446 73.7537L21.9877 83.8575C22.3118 84.0559 22.6844 84.161 23.0644 84.1613L23.0664 63.8486L4.72691 52.6392Z" fill="url(#paint4_linear_1_2212)"/>
<path d="M41.4058 52.6392C41.5763 52.9458 41.6639 53.2924 41.6642 53.6432V71.9909C41.664 72.3449 41.5729 72.6929 41.3996 73.0016C41.2262 73.3103 40.9765 73.5693 40.6743 73.7537L24.1411 83.8575C23.817 84.0559 23.4444 84.161 23.0644 84.1613L23.0664 63.8486L41.4058 52.6392Z" fill="url(#paint5_linear_1_2212)"/>
</g>
<g filter="url(#filter2_bi_1_2212)">
<path d="M79.8433 27.9901C79.671 27.6765 79.4195 27.4135 79.1138 27.2275L62.5806 17.1237C62.2563 16.9258 61.8838 16.821 61.5039 16.821C61.1239 16.821 60.7514 16.9258 60.4271 17.1237L43.8939 27.2275C43.5883 27.4135 43.3367 27.6765 43.1644 27.9901L61.5039 39.1996L79.8433 27.9901Z" fill="url(#paint6_linear_1_2212)"/>
<path d="M43.1644 27.9901C42.9939 28.2967 42.9024 28.6434 42.902 28.9941V47.3418C42.9022 47.6958 42.9934 48.0439 43.1667 48.3526C43.3401 48.6612 43.5898 48.9202 43.892 49.1047L60.4252 59.2085C60.7493 59.4068 61.1219 59.512 61.5019 59.5123L61.5039 39.1996L43.1644 27.9901Z" fill="url(#paint7_linear_1_2212)"/>
<path d="M79.8433 27.9901C80.0138 28.2967 80.1014 28.6434 80.1017 28.9941V47.3418C80.1015 47.6958 80.0104 48.0439 79.8371 48.3526C79.6637 48.6612 79.414 48.9202 79.1118 49.1047L62.5786 59.2085C62.2545 59.4068 61.8819 59.512 61.5019 59.5123L61.5039 39.1996L79.8433 27.9901Z" fill="url(#paint8_linear_1_2212)"/>
</g>
<g filter="url(#filter3_bi_1_2212)">
<path d="M118.281 52.6379C118.108 52.3243 117.857 52.0614 117.551 51.8753L101.018 41.7715C100.694 41.5736 100.321 41.4689 99.9414 41.4689C99.5614 41.4689 99.1889 41.5736 98.8646 41.7715L82.3314 51.8753C82.0258 52.0614 81.7742 52.3243 81.6019 52.6379L99.9414 63.8474L118.281 52.6379Z" fill="url(#paint9_linear_1_2212)"/>
<path d="M81.6019 52.6379C81.4314 52.9445 81.3399 53.2912 81.3395 53.642V71.9897C81.3397 72.3437 81.4309 72.6917 81.6042 73.0004C81.7776 73.3091 82.0273 73.5681 82.3295 73.7525L98.8627 83.8563C99.1868 84.0547 99.5594 84.1598 99.9394 84.1601L99.9414 63.8474L81.6019 52.6379Z" fill="url(#paint10_linear_1_2212)"/>
<path d="M118.281 52.6379C118.451 52.9445 118.539 53.2912 118.539 53.642V71.9897C118.539 72.3437 118.448 72.6917 118.275 73.0004C118.101 73.3091 117.851 73.5681 117.549 73.7525L101.016 83.8563C100.692 84.0547 100.319 84.1598 99.9394 84.1601L99.9414 63.8474L118.281 52.6379Z" fill="url(#paint11_linear_1_2212)"/>
</g>
<g filter="url(#filter4_bi_1_2212)">
<path d="M79.8433 80.9081C79.671 80.5945 79.4195 80.3315 79.1138 80.1455L62.5806 70.0417C62.2563 69.8437 61.8838 69.739 61.5039 69.739C61.1239 69.739 60.7514 69.8437 60.4271 70.0417L43.8939 80.1455C43.5883 80.3315 43.3367 80.5945 43.1644 80.9081L61.5039 92.1176L79.8433 80.9081Z" fill="url(#paint12_linear_1_2212)"/>
<path d="M43.1644 80.9081C42.9939 81.2147 42.9024 81.5613 42.902 81.9121V100.26C42.9022 100.614 42.9934 100.962 43.1667 101.271C43.3401 101.579 43.5898 101.838 43.892 102.023L60.4252 112.126C60.7493 112.325 61.1219 112.43 61.5019 112.43L61.5039 92.1176L43.1644 80.9081Z" fill="url(#paint13_linear_1_2212)"/>
<path d="M79.8433 80.9081C80.0138 81.2147 80.1014 81.5613 80.1017 81.9121V100.26C80.1015 100.614 80.0104 100.962 79.8371 101.271C79.6637 101.579 79.414 101.838 79.1118 102.023L62.5786 112.126C62.2545 112.325 61.8819 112.43 61.5019 112.43L61.5039 92.1176L79.8433 80.9081Z" fill="url(#paint14_linear_1_2212)"/>
</g>
<g filter="url(#filter5_bi_1_2212)">
<path d="M84.2425 26.6636C84.0289 26.2747 83.717 25.9487 83.3379 25.718L62.8379 13.19C62.4359 12.9445 61.9739 12.8147 61.5029 12.8147C61.0318 12.8147 60.5699 12.9445 60.1678 13.19L39.6678 25.718C39.2888 25.9487 38.9769 26.2747 38.7632 26.6636L61.5029 40.56L84.2425 26.6636Z" fill="#F1F1F1" fill-opacity="0.1"/>
<path d="M84.2425 26.6636C84.0289 26.2747 83.717 25.9487 83.3379 25.718L62.8379 13.19C62.4359 12.9445 61.9739 12.8147 61.5029 12.8147C61.0318 12.8147 60.5699 12.9445 60.1678 13.19L39.6678 25.718C39.2888 25.9487 38.9769 26.2747 38.7632 26.6636L61.5029 40.56L84.2425 26.6636Z" fill="url(#paint15_linear_1_2212)" fill-opacity="0.2"/>
<path d="M61.5029 39.6591L39.924 26.472C39.9701 26.4373 40.0179 26.4049 40.0675 26.3747L40.0687 26.374L60.5683 13.8461C60.5684 13.8461 60.5684 13.8461 60.5685 13.846C60.5685 13.846 60.5686 13.846 60.5687 13.8459C60.85 13.6743 61.1733 13.5834 61.5029 13.5834C61.8325 13.5834 62.1557 13.6743 62.4371 13.8459C62.4371 13.846 62.4372 13.846 62.4373 13.846C62.4373 13.8461 62.4374 13.8461 62.4374 13.8461L82.9371 26.374L82.9383 26.3747C82.9878 26.4049 83.0357 26.4373 83.0818 26.472L61.5029 39.6591Z" stroke="url(#paint16_linear_1_2212)" stroke-opacity="0.1" stroke-width="1.5375"/>
</g>
<g filter="url(#filter6_bi_1_2212)">
<path d="M38.7604 26.6632C38.5494 27.0426 38.4383 27.4694 38.4375 27.9035V50.6533C38.4377 51.0923 38.5507 51.5238 38.7657 51.9066C38.9806 52.2893 39.2903 52.6104 39.6649 52.8391L60.1649 65.3672C60.5669 65.6131 61.0288 65.7435 61.5 65.7439V40.5596L38.7604 26.6632Z" fill="#F1F1F1" fill-opacity="0.1"/>
<path d="M38.7604 26.6632C38.5494 27.0426 38.4383 27.4694 38.4375 27.9035V50.6533C38.4377 51.0923 38.5507 51.5238 38.7657 51.9066C38.9806 52.2893 39.2903 52.6104 39.6649 52.8391L60.1649 65.3672C60.5669 65.6131 61.0288 65.7435 61.5 65.7439V40.5596L38.7604 26.6632Z" fill="url(#paint17_linear_1_2212)" fill-opacity="0.2"/>
<path d="M39.2076 27.8375C39.2068 27.8597 39.2063 27.882 39.2063 27.9043V50.6531L39.2076 27.8375ZM39.2076 27.8375L60.7313 40.9908V64.801C60.6749 64.7741 60.6197 64.7443 60.5662 64.7115L60.5658 64.7113L40.0658 52.1832L40.0655 52.183C39.8032 52.0229 39.5864 51.7981 39.436 51.5302C39.2856 51.2624 39.2065 50.9605 39.2063 50.6533L39.2076 27.8375Z" stroke="url(#paint18_linear_1_2212)" stroke-opacity="0.1" stroke-width="1.5375"/>
</g>
<g filter="url(#filter7_bi_1_2212)">
<path d="M84.2396 26.6632C84.4506 27.0426 84.5617 27.4694 84.5625 27.9035V50.6533C84.5623 51.0923 84.4492 51.5238 84.2343 51.9066C84.0194 52.2893 83.7097 52.6104 83.3351 52.8391L62.8351 65.3672C62.4331 65.6131 61.9712 65.7435 61.5 65.7439V40.5596L84.2396 26.6632Z" fill="#F1F1F1" fill-opacity="0.1"/>
<path d="M84.2396 26.6632C84.4506 27.0426 84.5617 27.4694 84.5625 27.9035V50.6533C84.5623 51.0923 84.4492 51.5238 84.2343 51.9066C84.0194 52.2893 83.7097 52.6104 83.3351 52.8391L62.8351 65.3672C62.4331 65.6131 61.9712 65.7435 61.5 65.7439V40.5596L84.2396 26.6632Z" fill="url(#paint19_linear_1_2212)" fill-opacity="0.2"/>
<path d="M82.9345 52.183L82.9342 52.1832L62.4342 64.7113L62.4338 64.7115C62.3803 64.7443 62.3251 64.7741 62.2688 64.801V40.9908L83.7924 27.8375C83.7932 27.8599 83.7937 27.8824 83.7938 27.9049V50.6529C83.7936 50.9602 83.7145 51.2623 83.564 51.5302C83.4136 51.7981 83.1968 52.0229 82.9345 52.183Z" stroke="url(#paint20_linear_1_2212)" stroke-opacity="0.1" stroke-width="1.5375"/>
</g>
<g filter="url(#filter8_bi_1_2212)">
<path d="M122.68 50.1964C122.466 49.8076 122.154 49.4815 121.775 49.2509L101.275 36.7228C100.873 36.4774 100.411 36.3475 99.9404 36.3475C99.4693 36.3475 99.0074 36.4774 98.6053 36.7228L78.1053 49.2509C77.7263 49.4815 77.4144 49.8076 77.2007 50.1964L99.9404 64.0954L122.68 50.1964Z" fill="#F1F1F1" fill-opacity="0.1"/>
<path d="M122.68 50.1964C122.466 49.8076 122.154 49.4815 121.775 49.2509L101.275 36.7228C100.873 36.4774 100.411 36.3475 99.9404 36.3475C99.4693 36.3475 99.0074 36.4774 98.6053 36.7228L78.1053 49.2509C77.7263 49.4815 77.4144 49.8076 77.2007 50.1964L99.9404 64.0954L122.68 50.1964Z" fill="url(#paint21_linear_1_2212)" fill-opacity="0.2"/>
<path d="M99.9404 63.1944L78.3614 50.0049C78.4075 49.9702 78.4554 49.9377 78.505 49.9076L78.5062 49.9068L99.0058 37.379C99.0059 37.3789 99.0059 37.3789 99.006 37.3789C99.006 37.3788 99.0061 37.3788 99.0062 37.3788C99.2875 37.2071 99.6108 37.1163 99.9404 37.1163C100.27 37.1163 100.593 37.2072 100.875 37.379L121.375 49.9068L121.376 49.9076C121.425 49.9377 121.473 49.9702 121.519 50.0049L99.9404 63.1944Z" stroke="url(#paint22_linear_1_2212)" stroke-opacity="0.1" stroke-width="1.5375"/>
</g>
<g filter="url(#filter9_bi_1_2212)">
<path d="M77.1979 50.1987C76.9865 50.5789 76.8754 51.0066 76.875 51.4415V74.1914C76.8752 74.6304 76.9882 75.0619 77.2032 75.4447C77.4181 75.8274 77.7278 76.1485 78.1024 76.3772L98.6024 88.9053C99.0044 89.1512 99.4663 89.2815 99.9375 89.282V64.0977L77.1979 50.1987Z" fill="#F1F1F1" fill-opacity="0.1"/>
<path d="M77.1979 50.1987C76.9865 50.5789 76.8754 51.0066 76.875 51.4415V74.1914C76.8752 74.6304 76.9882 75.0619 77.2032 75.4447C77.4181 75.8274 77.7278 76.1485 78.1024 76.3772L98.6024 88.9053C99.0044 89.1512 99.4663 89.2815 99.9375 89.282V64.0977L77.1979 50.1987Z" fill="url(#paint23_linear_1_2212)" fill-opacity="0.2"/>
<path d="M77.6451 51.3731C77.6442 51.396 77.6438 51.4189 77.6438 51.4419V74.1912L77.6451 51.3731ZM77.6451 51.3731L99.1688 64.5288V88.339C99.1124 88.3122 99.0572 88.2823 99.0037 88.2495L99.0033 88.2493L78.5033 75.7213L78.503 75.7211C78.2407 75.561 78.0239 75.3362 77.8735 75.0683C77.7231 74.8005 77.644 74.4985 77.6438 74.1914L77.6451 51.3731Z" stroke="url(#paint24_linear_1_2212)" stroke-opacity="0.1" stroke-width="1.5375"/>
</g>
<g filter="url(#filter10_bi_1_2212)">
<path d="M122.677 50.1987C122.888 50.5789 123 51.0066 123 51.4415V74.1914C123 74.6304 122.887 75.0619 122.672 75.4447C122.457 75.8274 122.147 76.1485 121.773 76.3772L101.273 88.9053C100.871 89.1512 100.409 89.2815 99.9375 89.282V64.0977L122.677 50.1987Z" fill="#F1F1F1" fill-opacity="0.1"/>
<path d="M122.677 50.1987C122.888 50.5789 123 51.0066 123 51.4415V74.1914C123 74.6304 122.887 75.0619 122.672 75.4447C122.457 75.8274 122.147 76.1485 121.773 76.3772L101.273 88.9053C100.871 89.1512 100.409 89.2815 99.9375 89.282V64.0977L122.677 50.1987Z" fill="url(#paint25_linear_1_2212)" fill-opacity="0.2"/>
<path d="M121.372 75.7211L121.372 75.7213L100.872 88.2493L100.871 88.2495C100.818 88.2823 100.763 88.3122 100.706 88.339V64.5288L122.23 51.3731C122.231 51.3961 122.231 51.4192 122.231 51.4423V74.191C122.231 74.4983 122.152 74.8003 122.002 75.0683C121.851 75.3362 121.634 75.561 121.372 75.7211Z" stroke="url(#paint26_linear_1_2212)" stroke-opacity="0.1" stroke-width="1.5375"/>
</g>
<g filter="url(#filter11_bi_1_2212)">
<path d="M45.805 50.1964C45.5914 49.8076 45.2795 49.4815 44.9004 49.2509L24.4004 36.7228C23.9984 36.4774 23.5364 36.3475 23.0654 36.3475C22.5943 36.3475 22.1324 36.4774 21.7303 36.7228L1.23031 49.2509C0.851286 49.4815 0.53939 49.8076 0.325745 50.1964L23.0654 64.0954L45.805 50.1964Z" fill="#F1F1F1" fill-opacity="0.1"/>
<path d="M45.805 50.1964C45.5914 49.8076 45.2795 49.4815 44.9004 49.2509L24.4004 36.7228C23.9984 36.4774 23.5364 36.3475 23.0654 36.3475C22.5943 36.3475 22.1324 36.4774 21.7303 36.7228L1.23031 49.2509C0.851286 49.4815 0.53939 49.8076 0.325745 50.1964L23.0654 64.0954L45.805 50.1964Z" fill="url(#paint27_linear_1_2212)" fill-opacity="0.2"/>
<path d="M23.0654 63.1944L1.48641 50.0049C1.53252 49.9702 1.58042 49.9377 1.62996 49.9076L1.63118 49.9068L22.1308 37.379C22.1309 37.3789 22.1309 37.3789 22.131 37.3789C22.131 37.3788 22.1311 37.3788 22.1312 37.3788C22.4125 37.2071 22.7358 37.1163 23.0654 37.1163C23.395 37.1163 23.7182 37.2071 23.9996 37.3788C23.9996 37.3788 23.9997 37.3788 23.9998 37.3789C23.9998 37.3789 23.9999 37.3789 23.9999 37.379L44.4996 49.9068L44.5008 49.9076C44.5503 49.9377 44.5982 49.9702 44.6443 50.0049L23.0654 63.1944Z" stroke="url(#paint28_linear_1_2212)" stroke-opacity="0.1" stroke-width="1.5375"/>
</g>
<g filter="url(#filter12_bi_1_2212)">
<path d="M0.322875 50.1987C0.111517 50.5789 0.000403074 51.0066 0 51.4415L0 74.1914C0.000244402 74.6304 0.113249 75.0619 0.328178 75.4447C0.543108 75.8274 0.852757 76.1485 1.22744 76.3772L21.7274 88.9053C22.1294 89.1512 22.5913 89.2815 23.0625 89.282V64.0977L0.322875 50.1987Z" fill="#F1F1F1" fill-opacity="0.1"/>
<path d="M0.322875 50.1987C0.111517 50.5789 0.000403074 51.0066 0 51.4415L0 74.1914C0.000244402 74.6304 0.113249 75.0619 0.328178 75.4447C0.543108 75.8274 0.852757 76.1485 1.22744 76.3772L21.7274 88.9053C22.1294 89.1512 22.5913 89.2815 23.0625 89.282V64.0977L0.322875 50.1987Z" fill="url(#paint29_linear_1_2212)" fill-opacity="0.2"/>
<path d="M0.770147 51.3731C0.769243 51.396 0.768776 51.4189 0.76875 51.4419V74.1912L0.770147 51.3731ZM0.770147 51.3731L22.2938 64.5288V88.339C22.2374 88.3122 22.1822 88.2823 22.1287 88.2495L22.1283 88.2493L1.62831 75.7213L1.62796 75.7211C1.36568 75.561 1.14892 75.3362 0.998475 75.0683C0.848094 74.8005 0.768994 74.4985 0.76875 74.1914L0.770147 51.3731Z" stroke="url(#paint30_linear_1_2212)" stroke-opacity="0.1" stroke-width="1.5375"/>
</g>
<g filter="url(#filter13_bi_1_2212)">
<path d="M45.8021 50.1987C46.0135 50.5789 46.1246 51.0066 46.125 51.4415V74.1914C46.1248 74.6304 46.0118 75.0619 45.7968 75.4447C45.5819 75.8274 45.2722 76.1485 44.8976 76.3772L24.3976 88.9053C23.9956 89.1512 23.5337 89.2815 23.0625 89.282V64.0977L45.8021 50.1987Z" fill="#F1F1F1" fill-opacity="0.1"/>
<path d="M45.8021 50.1987C46.0135 50.5789 46.1246 51.0066 46.125 51.4415V74.1914C46.1248 74.6304 46.0118 75.0619 45.7968 75.4447C45.5819 75.8274 45.2722 76.1485 44.8976 76.3772L24.3976 88.9053C23.9956 89.1512 23.5337 89.2815 23.0625 89.282V64.0977L45.8021 50.1987Z" fill="url(#paint31_linear_1_2212)" fill-opacity="0.2"/>
<path d="M44.497 75.7211L44.4967 75.7213L23.9967 88.2493L23.9963 88.2495C23.9428 88.2823 23.8876 88.3122 23.8313 88.339V64.5288L45.3549 51.3731C45.3558 51.3961 45.3562 51.4192 45.3563 51.4423V74.191C45.3561 74.4983 45.277 74.8003 45.1265 75.0683C44.9761 75.3362 44.7593 75.561 44.497 75.7211Z" stroke="url(#paint32_linear_1_2212)" stroke-opacity="0.1" stroke-width="1.5375"/>
</g>
<g filter="url(#filter14_bi_1_2212)">
<path d="M84.2425 75.7915C84.0289 75.4026 83.717 75.0766 83.3379 74.846L62.8379 62.3179C62.4359 62.0725 61.9739 61.9426 61.5029 61.9426C61.0318 61.9426 60.5699 62.0725 60.1678 62.3179L39.6678 74.846C39.2888 75.0766 38.9769 75.4026 38.7632 75.7915L61.5029 89.688L84.2425 75.7915Z" fill="#F1F1F1" fill-opacity="0.1"/>
<path d="M84.2425 75.7915C84.0289 75.4026 83.717 75.0766 83.3379 74.846L62.8379 62.3179C62.4359 62.0725 61.9739 61.9426 61.5029 61.9426C61.0318 61.9426 60.5699 62.0725 60.1678 62.3179L39.6678 74.846C39.2888 75.0766 38.9769 75.4026 38.7632 75.7915L61.5029 89.688L84.2425 75.7915Z" fill="url(#paint33_linear_1_2212)" fill-opacity="0.2"/>
<path d="M61.5029 88.787L39.924 75.5999C39.9701 75.5653 40.0179 75.5328 40.0675 75.5027L40.0687 75.5019L60.5683 62.9741C60.5684 62.974 60.5684 62.974 60.5685 62.974C60.5685 62.9739 60.5686 62.9739 60.5687 62.9738C60.85 62.8022 61.1733 62.7114 61.5029 62.7114C61.8325 62.7114 62.1557 62.8022 62.4371 62.9738C62.4371 62.9739 62.4372 62.9739 62.4373 62.974C62.4373 62.974 62.4374 62.974 62.4374 62.9741L82.9371 75.5019L82.9383 75.5027C82.9878 75.5328 83.0357 75.5653 83.0818 75.5999L61.5029 88.787Z" stroke="url(#paint34_linear_1_2212)" stroke-opacity="0.1" stroke-width="1.5375"/>
</g>
<g filter="url(#filter15_bi_1_2212)">
<path d="M38.7604 75.7913C38.5494 76.1707 38.4383 76.5974 38.4375 77.0315V99.7814C38.4377 100.22 38.5507 100.652 38.7657 101.035C38.9806 101.417 39.2903 101.738 39.6649 101.967L60.1649 114.495C60.5669 114.741 61.0288 114.872 61.5 114.872V89.6877L38.7604 75.7913Z" fill="#F1F1F1" fill-opacity="0.1"/>
<path d="M38.7604 75.7913C38.5494 76.1707 38.4383 76.5974 38.4375 77.0315V99.7814C38.4377 100.22 38.5507 100.652 38.7657 101.035C38.9806 101.417 39.2903 101.738 39.6649 101.967L60.1649 114.495C60.5669 114.741 61.0288 114.872 61.5 114.872V89.6877L38.7604 75.7913Z" fill="url(#paint35_linear_1_2212)" fill-opacity="0.2"/>
<path d="M40.0655 101.311L40.0658 101.311L60.5658 113.839L60.5662 113.84C60.6197 113.872 60.6749 113.902 60.7313 113.929V90.1188L39.2076 76.9655C39.2068 76.9878 39.2063 77.01 39.2063 77.0323V99.7812L40.0655 101.311ZM40.0655 101.311C39.8032 101.151 39.5864 100.926 39.436 100.658C39.2856 100.39 39.2065 100.089 39.2063 99.7814L40.0655 101.311Z" stroke="url(#paint36_linear_1_2212)" stroke-opacity="0.1" stroke-width="1.5375"/>
</g>
<g filter="url(#filter16_bi_1_2212)">
<path d="M84.2396 75.7913C84.4506 76.1707 84.5617 76.5974 84.5625 77.0315V99.7814C84.5623 100.22 84.4492 100.652 84.2343 101.035C84.0194 101.417 83.7097 101.738 83.3351 101.967L62.8351 114.495C62.4331 114.741 61.9712 114.872 61.5 114.872V89.6877L84.2396 75.7913Z" fill="#F1F1F1" fill-opacity="0.1"/>
<path d="M84.2396 75.7913C84.4506 76.1707 84.5617 76.5974 84.5625 77.0315V99.7814C84.5623 100.22 84.4492 100.652 84.2343 101.035C84.0194 101.417 83.7097 101.738 83.3351 101.967L62.8351 114.495C62.4331 114.741 61.9712 114.872 61.5 114.872V89.6877L84.2396 75.7913Z" fill="url(#paint37_linear_1_2212)" fill-opacity="0.2"/>
<path d="M82.9345 101.311L82.9342 101.311L62.4342 113.839L62.4338 113.84C62.3803 113.872 62.3251 113.902 62.2688 113.929V90.1188L83.7924 76.9655C83.7932 76.988 83.7937 77.0105 83.7938 77.033V99.781C83.7936 100.088 83.7145 100.39 83.564 100.658C83.4136 100.926 83.1968 101.151 82.9345 101.311Z" stroke="url(#paint38_linear_1_2212)" stroke-opacity="0.1" stroke-width="1.5375"/>
</g>
<defs>
<filter id="filter0_bi_1_2212" x="-7.93534" y="29.0702" width="61.9995" height="67.4911" filterUnits="userSpaceOnUse" color-interpolation-filters="sRGB">
<feFlood flood-opacity="0" result="BackgroundImageFix"/>
<feGaussianBlur in="BackgroundImageFix" stdDeviation="6.19994"/>
<feComposite in2="SourceAlpha" operator="in" result="effect1_backgroundBlur_1_2212"/>
<feBlend mode="normal" in="SourceGraphic" in2="effect1_backgroundBlur_1_2212" result="shape"/>
<feColorMatrix in="SourceAlpha" type="matrix" values="0 0 0 0 0 0 0 0 0 0 0 0 0 0 0 0 0 0 127 0" result="hardAlpha"/>
<feOffset dy="2.06665"/>
<feGaussianBlur stdDeviation="4.1333"/>
<feComposite in2="hardAlpha" operator="arithmetic" k2="-1" k3="1"/>
<feColorMatrix type="matrix" values="0 0 0 0 1 0 0 0 0 1 0 0 0 0 1 0 0 0 0.4 0"/>
<feBlend mode="normal" in2="shape" result="effect2_innerShadow_1_2212"/>
</filter>
<filter id="filter1_bi_1_2212" x="-7.93534" y="29.0702" width="61.9995" height="67.4911" filterUnits="userSpaceOnUse" color-interpolation-filters="sRGB">
<feFlood flood-opacity="0" result="BackgroundImageFix"/>
<feGaussianBlur in="BackgroundImageFix" stdDeviation="6.19994"/>
<feComposite in2="SourceAlpha" operator="in" result="effect1_backgroundBlur_1_2212"/>
<feBlend mode="normal" in="SourceGraphic" in2="effect1_backgroundBlur_1_2212" result="shape"/>
<feColorMatrix in="SourceAlpha" type="matrix" values="0 0 0 0 0 0 0 0 0 0 0 0 0 0 0 0 0 0 127 0" result="hardAlpha"/>
<feOffset dy="2.06665"/>
<feGaussianBlur stdDeviation="4.1333"/>
<feComposite in2="hardAlpha" operator="arithmetic" k2="-1" k3="1"/>
<feColorMatrix type="matrix" values="0 0 0 0 1 0 0 0 0 1 0 0 0 0 1 0 0 0 0.4 0"/>
<feBlend mode="normal" in2="shape" result="effect2_innerShadow_1_2212"/>
</filter>
<filter id="filter2_bi_1_2212" x="30.5022" y="4.42116" width="61.9995" height="67.4911" filterUnits="userSpaceOnUse" color-interpolation-filters="sRGB">
<feFlood flood-opacity="0" result="BackgroundImageFix"/>
<feGaussianBlur in="BackgroundImageFix" stdDeviation="6.19994"/>
<feComposite in2="SourceAlpha" operator="in" result="effect1_backgroundBlur_1_2212"/>
<feBlend mode="normal" in="SourceGraphic" in2="effect1_backgroundBlur_1_2212" result="shape"/>
<feColorMatrix in="SourceAlpha" type="matrix" values="0 0 0 0 0 0 0 0 0 0 0 0 0 0 0 0 0 0 127 0" result="hardAlpha"/>
<feOffset dy="2.06665"/>
<feGaussianBlur stdDeviation="4.1333"/>
<feComposite in2="hardAlpha" operator="arithmetic" k2="-1" k3="1"/>
<feColorMatrix type="matrix" values="0 0 0 0 1 0 0 0 0 1 0 0 0 0 1 0 0 0 0.4 0"/>
<feBlend mode="normal" in2="shape" result="effect2_innerShadow_1_2212"/>
</filter>
<filter id="filter3_bi_1_2212" x="68.9397" y="29.069" width="61.9995" height="67.4911" filterUnits="userSpaceOnUse" color-interpolation-filters="sRGB">
<feFlood flood-opacity="0" result="BackgroundImageFix"/>
<feGaussianBlur in="BackgroundImageFix" stdDeviation="6.19994"/>
<feComposite in2="SourceAlpha" operator="in" result="effect1_backgroundBlur_1_2212"/>
<feBlend mode="normal" in="SourceGraphic" in2="effect1_backgroundBlur_1_2212" result="shape"/>
<feColorMatrix in="SourceAlpha" type="matrix" values="0 0 0 0 0 0 0 0 0 0 0 0 0 0 0 0 0 0 127 0" result="hardAlpha"/>
<feOffset dy="2.06665"/>
<feGaussianBlur stdDeviation="4.1333"/>
<feComposite in2="hardAlpha" operator="arithmetic" k2="-1" k3="1"/>
<feColorMatrix type="matrix" values="0 0 0 0 1 0 0 0 0 1 0 0 0 0 1 0 0 0 0.4 0"/>
<feBlend mode="normal" in2="shape" result="effect2_innerShadow_1_2212"/>
</filter>
<filter id="filter4_bi_1_2212" x="30.5022" y="57.3391" width="61.9995" height="67.4909" filterUnits="userSpaceOnUse" color-interpolation-filters="sRGB">
<feFlood flood-opacity="0" result="BackgroundImageFix"/>
<feGaussianBlur in="BackgroundImageFix" stdDeviation="6.19994"/>
<feComposite in2="SourceAlpha" operator="in" result="effect1_backgroundBlur_1_2212"/>
<feBlend mode="normal" in="SourceGraphic" in2="effect1_backgroundBlur_1_2212" result="shape"/>
<feColorMatrix in="SourceAlpha" type="matrix" values="0 0 0 0 0 0 0 0 0 0 0 0 0 0 0 0 0 0 127 0" result="hardAlpha"/>
<feOffset dy="2.06665"/>
<feGaussianBlur stdDeviation="4.1333"/>
<feComposite in2="hardAlpha" operator="arithmetic" k2="-1" k3="1"/>
<feColorMatrix type="matrix" values="0 0 0 0 1 0 0 0 0 1 0 0 0 0 1 0 0 0 0.4 0"/>
<feBlend mode="normal" in2="shape" result="effect2_innerShadow_1_2212"/>
</filter>
<filter id="filter5_bi_1_2212" x="8.01324" y="-17.9353" width="106.979" height="89.2454" filterUnits="userSpaceOnUse" color-interpolation-filters="sRGB">
<feFlood flood-opacity="0" result="BackgroundImageFix"/>
<feGaussianBlur in="BackgroundImageFix" stdDeviation="15.375"/>
<feComposite in2="SourceAlpha" operator="in" result="effect1_backgroundBlur_1_2212"/>
<feBlend mode="normal" in="SourceGraphic" in2="effect1_backgroundBlur_1_2212" result="shape"/>
<feColorMatrix in="SourceAlpha" type="matrix" values="0 0 0 0 0 0 0 0 0 0 0 0 0 0 0 0 0 0 127 0" result="hardAlpha"/>
<feOffset dy="10.25"/>
<feGaussianBlur stdDeviation="7.6875"/>
<feComposite in2="hardAlpha" operator="arithmetic" k2="-1" k3="1"/>
<feColorMatrix type="matrix" values="0 0 0 0 1 0 0 0 0 1 0 0 0 0 1 0 0 0 0.4 0"/>
<feBlend mode="normal" in2="shape" result="effect2_innerShadow_1_2212"/>
</filter>
<filter id="filter6_bi_1_2212" x="7.6875" y="-4.08679" width="84.5625" height="100.581" filterUnits="userSpaceOnUse" color-interpolation-filters="sRGB">
<feFlood flood-opacity="0" result="BackgroundImageFix"/>
<feGaussianBlur in="BackgroundImageFix" stdDeviation="15.375"/>
<feComposite in2="SourceAlpha" operator="in" result="effect1_backgroundBlur_1_2212"/>
<feBlend mode="normal" in="SourceGraphic" in2="effect1_backgroundBlur_1_2212" result="shape"/>
<feColorMatrix in="SourceAlpha" type="matrix" values="0 0 0 0 0 0 0 0 0 0 0 0 0 0 0 0 0 0 127 0" result="hardAlpha"/>
<feOffset dy="10.25"/>
<feGaussianBlur stdDeviation="7.6875"/>
<feComposite in2="hardAlpha" operator="arithmetic" k2="-1" k3="1"/>
<feColorMatrix type="matrix" values="0 0 0 0 1 0 0 0 0 1 0 0 0 0 1 0 0 0 0.4 0"/>
<feBlend mode="normal" in2="shape" result="effect2_innerShadow_1_2212"/>
</filter>
<filter id="filter7_bi_1_2212" x="30.75" y="-4.08679" width="84.5625" height="100.581" filterUnits="userSpaceOnUse" color-interpolation-filters="sRGB">
<feFlood flood-opacity="0" result="BackgroundImageFix"/>
<feGaussianBlur in="BackgroundImageFix" stdDeviation="15.375"/>
<feComposite in2="SourceAlpha" operator="in" result="effect1_backgroundBlur_1_2212"/>
<feBlend mode="normal" in="SourceGraphic" in2="effect1_backgroundBlur_1_2212" result="shape"/>
<feColorMatrix in="SourceAlpha" type="matrix" values="0 0 0 0 0 0 0 0 0 0 0 0 0 0 0 0 0 0 127 0" result="hardAlpha"/>
<feOffset dy="10.25"/>
<feGaussianBlur stdDeviation="7.6875"/>
<feComposite in2="hardAlpha" operator="arithmetic" k2="-1" k3="1"/>
<feColorMatrix type="matrix" values="0 0 0 0 1 0 0 0 0 1 0 0 0 0 1 0 0 0 0.4 0"/>
<feBlend mode="normal" in2="shape" result="effect2_innerShadow_1_2212"/>
</filter>
<filter id="filter8_bi_1_2212" x="46.4507" y="5.59753" width="106.979" height="89.2479" filterUnits="userSpaceOnUse" color-interpolation-filters="sRGB">
<feFlood flood-opacity="0" result="BackgroundImageFix"/>
<feGaussianBlur in="BackgroundImageFix" stdDeviation="15.375"/>
<feComposite in2="SourceAlpha" operator="in" result="effect1_backgroundBlur_1_2212"/>
<feBlend mode="normal" in="SourceGraphic" in2="effect1_backgroundBlur_1_2212" result="shape"/>
<feColorMatrix in="SourceAlpha" type="matrix" values="0 0 0 0 0 0 0 0 0 0 0 0 0 0 0 0 0 0 127 0" result="hardAlpha"/>
<feOffset dy="10.25"/>
<feGaussianBlur stdDeviation="7.6875"/>
<feComposite in2="hardAlpha" operator="arithmetic" k2="-1" k3="1"/>
<feColorMatrix type="matrix" values="0 0 0 0 1 0 0 0 0 1 0 0 0 0 1 0 0 0 0.4 0"/>
<feBlend mode="normal" in2="shape" result="effect2_innerShadow_1_2212"/>
</filter>
<filter id="filter9_bi_1_2212" x="46.125" y="19.4487" width="84.5625" height="100.583" filterUnits="userSpaceOnUse" color-interpolation-filters="sRGB">
<feFlood flood-opacity="0" result="BackgroundImageFix"/>
<feGaussianBlur in="BackgroundImageFix" stdDeviation="15.375"/>
<feComposite in2="SourceAlpha" operator="in" result="effect1_backgroundBlur_1_2212"/>
<feBlend mode="normal" in="SourceGraphic" in2="effect1_backgroundBlur_1_2212" result="shape"/>
<feColorMatrix in="SourceAlpha" type="matrix" values="0 0 0 0 0 0 0 0 0 0 0 0 0 0 0 0 0 0 127 0" result="hardAlpha"/>
<feOffset dy="10.25"/>
<feGaussianBlur stdDeviation="7.6875"/>
<feComposite in2="hardAlpha" operator="arithmetic" k2="-1" k3="1"/>
<feColorMatrix type="matrix" values="0 0 0 0 1 0 0 0 0 1 0 0 0 0 1 0 0 0 0.4 0"/>
<feBlend mode="normal" in2="shape" result="effect2_innerShadow_1_2212"/>
</filter>
<filter id="filter10_bi_1_2212" x="69.1875" y="19.4487" width="84.5625" height="100.583" filterUnits="userSpaceOnUse" color-interpolation-filters="sRGB">
<feFlood flood-opacity="0" result="BackgroundImageFix"/>
<feGaussianBlur in="BackgroundImageFix" stdDeviation="15.375"/>
<feComposite in2="SourceAlpha" operator="in" result="effect1_backgroundBlur_1_2212"/>
<feBlend mode="normal" in="SourceGraphic" in2="effect1_backgroundBlur_1_2212" result="shape"/>
<feColorMatrix in="SourceAlpha" type="matrix" values="0 0 0 0 0 0 0 0 0 0 0 0 0 0 0 0 0 0 127 0" result="hardAlpha"/>
<feOffset dy="10.25"/>
<feGaussianBlur stdDeviation="7.6875"/>
<feComposite in2="hardAlpha" operator="arithmetic" k2="-1" k3="1"/>
<feColorMatrix type="matrix" values="0 0 0 0 1 0 0 0 0 1 0 0 0 0 1 0 0 0 0.4 0"/>
<feBlend mode="normal" in2="shape" result="effect2_innerShadow_1_2212"/>
</filter>
<filter id="filter11_bi_1_2212" x="-30.4243" y="5.59753" width="106.979" height="89.2479" filterUnits="userSpaceOnUse" color-interpolation-filters="sRGB">
<feFlood flood-opacity="0" result="BackgroundImageFix"/>
<feGaussianBlur in="BackgroundImageFix" stdDeviation="15.375"/>
<feComposite in2="SourceAlpha" operator="in" result="effect1_backgroundBlur_1_2212"/>
<feBlend mode="normal" in="SourceGraphic" in2="effect1_backgroundBlur_1_2212" result="shape"/>
<feColorMatrix in="SourceAlpha" type="matrix" values="0 0 0 0 0 0 0 0 0 0 0 0 0 0 0 0 0 0 127 0" result="hardAlpha"/>
<feOffset dy="10.25"/>
<feGaussianBlur stdDeviation="7.6875"/>
<feComposite in2="hardAlpha" operator="arithmetic" k2="-1" k3="1"/>
<feColorMatrix type="matrix" values="0 0 0 0 1 0 0 0 0 1 0 0 0 0 1 0 0 0 0.4 0"/>
<feBlend mode="normal" in2="shape" result="effect2_innerShadow_1_2212"/>
</filter>
<filter id="filter12_bi_1_2212" x="-30.75" y="19.4487" width="84.5625" height="100.583" filterUnits="userSpaceOnUse" color-interpolation-filters="sRGB">
<feFlood flood-opacity="0" result="BackgroundImageFix"/>
<feGaussianBlur in="BackgroundImageFix" stdDeviation="15.375"/>
<feComposite in2="SourceAlpha" operator="in" result="effect1_backgroundBlur_1_2212"/>
<feBlend mode="normal" in="SourceGraphic" in2="effect1_backgroundBlur_1_2212" result="shape"/>
<feColorMatrix in="SourceAlpha" type="matrix" values="0 0 0 0 0 0 0 0 0 0 0 0 0 0 0 0 0 0 127 0" result="hardAlpha"/>
<feOffset dy="10.25"/>
<feGaussianBlur stdDeviation="7.6875"/>
<feComposite in2="hardAlpha" operator="arithmetic" k2="-1" k3="1"/>
<feColorMatrix type="matrix" values="0 0 0 0 1 0 0 0 0 1 0 0 0 0 1 0 0 0 0.4 0"/>
<feBlend mode="normal" in2="shape" result="effect2_innerShadow_1_2212"/>
</filter>
<filter id="filter13_bi_1_2212" x="-7.6875" y="19.4487" width="84.5625" height="100.583" filterUnits="userSpaceOnUse" color-interpolation-filters="sRGB">
<feFlood flood-opacity="0" result="BackgroundImageFix"/>
<feGaussianBlur in="BackgroundImageFix" stdDeviation="15.375"/>
<feComposite in2="SourceAlpha" operator="in" result="effect1_backgroundBlur_1_2212"/>
<feBlend mode="normal" in="SourceGraphic" in2="effect1_backgroundBlur_1_2212" result="shape"/>
<feColorMatrix in="SourceAlpha" type="matrix" values="0 0 0 0 0 0 0 0 0 0 0 0 0 0 0 0 0 0 127 0" result="hardAlpha"/>
<feOffset dy="10.25"/>
<feGaussianBlur stdDeviation="7.6875"/>
<feComposite in2="hardAlpha" operator="arithmetic" k2="-1" k3="1"/>
<feColorMatrix type="matrix" values="0 0 0 0 1 0 0 0 0 1 0 0 0 0 1 0 0 0 0.4 0"/>
<feBlend mode="normal" in2="shape" result="effect2_innerShadow_1_2212"/>
</filter>
<filter id="filter14_bi_1_2212" x="8.01324" y="31.1926" width="106.979" height="89.2454" filterUnits="userSpaceOnUse" color-interpolation-filters="sRGB">
<feFlood flood-opacity="0" result="BackgroundImageFix"/>
<feGaussianBlur in="BackgroundImageFix" stdDeviation="15.375"/>
<feComposite in2="SourceAlpha" operator="in" result="effect1_backgroundBlur_1_2212"/>
<feBlend mode="normal" in="SourceGraphic" in2="effect1_backgroundBlur_1_2212" result="shape"/>
<feColorMatrix in="SourceAlpha" type="matrix" values="0 0 0 0 0 0 0 0 0 0 0 0 0 0 0 0 0 0 127 0" result="hardAlpha"/>
<feOffset dy="10.25"/>
<feGaussianBlur stdDeviation="7.6875"/>
<feComposite in2="hardAlpha" operator="arithmetic" k2="-1" k3="1"/>
<feColorMatrix type="matrix" values="0 0 0 0 1 0 0 0 0 1 0 0 0 0 1 0 0 0 0.4 0"/>
<feBlend mode="normal" in2="shape" result="effect2_innerShadow_1_2212"/>
</filter>
<filter id="filter15_bi_1_2212" x="7.6875" y="45.0413" width="84.5625" height="100.581" filterUnits="userSpaceOnUse" color-interpolation-filters="sRGB">
<feFlood flood-opacity="0" result="BackgroundImageFix"/>
<feGaussianBlur in="BackgroundImageFix" stdDeviation="15.375"/>
<feComposite in2="SourceAlpha" operator="in" result="effect1_backgroundBlur_1_2212"/>
<feBlend mode="normal" in="SourceGraphic" in2="effect1_backgroundBlur_1_2212" result="shape"/>
<feColorMatrix in="SourceAlpha" type="matrix" values="0 0 0 0 0 0 0 0 0 0 0 0 0 0 0 0 0 0 127 0" result="hardAlpha"/>
<feOffset dy="10.25"/>
<feGaussianBlur stdDeviation="7.6875"/>
<feComposite in2="hardAlpha" operator="arithmetic" k2="-1" k3="1"/>
<feColorMatrix type="matrix" values="0 0 0 0 1 0 0 0 0 1 0 0 0 0 1 0 0 0 0.4 0"/>
<feBlend mode="normal" in2="shape" result="effect2_innerShadow_1_2212"/>
</filter>
<filter id="filter16_bi_1_2212" x="30.75" y="45.0413" width="84.5625" height="100.581" filterUnits="userSpaceOnUse" color-interpolation-filters="sRGB">
<feFlood flood-opacity="0" result="BackgroundImageFix"/>
<feGaussianBlur in="BackgroundImageFix" stdDeviation="15.375"/>
<feComposite in2="SourceAlpha" operator="in" result="effect1_backgroundBlur_1_2212"/>
<feBlend mode="normal" in="SourceGraphic" in2="effect1_backgroundBlur_1_2212" result="shape"/>
<feColorMatrix in="SourceAlpha" type="matrix" values="0 0 0 0 0 0 0 0 0 0 0 0 0 0 0 0 0 0 127 0" result="hardAlpha"/>
<feOffset dy="10.25"/>
<feGaussianBlur stdDeviation="7.6875"/>
<feComposite in2="hardAlpha" operator="arithmetic" k2="-1" k3="1"/>
<feColorMatrix type="matrix" values="0 0 0 0 1 0 0 0 0 1 0 0 0 0 1 0 0 0 0.4 0"/>
<feBlend mode="normal" in2="shape" result="effect2_innerShadow_1_2212"/>
</filter>
<linearGradient id="paint0_linear_1_2212" x1="6.01453" y1="50.0083" x2="46.7509" y2="54.9384" gradientUnits="userSpaceOnUse">
<stop stop-color="#237736"/>
<stop offset="1" stop-color="#34F45F"/>
</linearGradient>
<linearGradient id="paint1_linear_1_2212" x1="6.01453" y1="50.0083" x2="46.7509" y2="54.9384" gradientUnits="userSpaceOnUse">
<stop stop-color="#237736"/>
<stop offset="1" stop-color="#34F45F"/>
</linearGradient>
<linearGradient id="paint2_linear_1_2212" x1="6.01453" y1="50.0083" x2="46.7509" y2="54.9384" gradientUnits="userSpaceOnUse">
<stop stop-color="#237736"/>
<stop offset="1" stop-color="#34F45F"/>
</linearGradient>
<linearGradient id="paint3_linear_1_2212" x1="6.01453" y1="50.0083" x2="46.7509" y2="54.9384" gradientUnits="userSpaceOnUse">
<stop stop-color="#237736"/>
<stop offset="1" stop-color="#34F45F"/>
</linearGradient>
<linearGradient id="paint4_linear_1_2212" x1="6.01453" y1="50.0083" x2="46.7509" y2="54.9384" gradientUnits="userSpaceOnUse">
<stop stop-color="#237736"/>
<stop offset="1" stop-color="#34F45F"/>
</linearGradient>
<linearGradient id="paint5_linear_1_2212" x1="6.01453" y1="50.0083" x2="46.7509" y2="54.9384" gradientUnits="userSpaceOnUse">
<stop stop-color="#237736"/>
<stop offset="1" stop-color="#34F45F"/>
</linearGradient>
<linearGradient id="paint6_linear_1_2212" x1="44.452" y1="25.3593" x2="85.1884" y2="30.2893" gradientUnits="userSpaceOnUse">
<stop stop-color="#237736"/>
<stop offset="1" stop-color="#34F45F"/>
</linearGradient>
<linearGradient id="paint7_linear_1_2212" x1="44.452" y1="25.3593" x2="85.1884" y2="30.2893" gradientUnits="userSpaceOnUse">
<stop stop-color="#237736"/>
<stop offset="1" stop-color="#34F45F"/>
</linearGradient>
<linearGradient id="paint8_linear_1_2212" x1="44.452" y1="25.3593" x2="85.1884" y2="30.2893" gradientUnits="userSpaceOnUse">
<stop stop-color="#237736"/>
<stop offset="1" stop-color="#34F45F"/>
</linearGradient>
<linearGradient id="paint9_linear_1_2212" x1="82.8895" y1="50.0071" x2="123.626" y2="54.9372" gradientUnits="userSpaceOnUse">
<stop stop-color="#237736"/>
<stop offset="1" stop-color="#34F45F"/>
</linearGradient>
<linearGradient id="paint10_linear_1_2212" x1="82.8895" y1="50.0071" x2="123.626" y2="54.9372" gradientUnits="userSpaceOnUse">
<stop stop-color="#237736"/>
<stop offset="1" stop-color="#34F45F"/>
</linearGradient>
<linearGradient id="paint11_linear_1_2212" x1="82.8895" y1="50.0071" x2="123.626" y2="54.9372" gradientUnits="userSpaceOnUse">
<stop stop-color="#237736"/>
<stop offset="1" stop-color="#34F45F"/>
</linearGradient>
<linearGradient id="paint12_linear_1_2212" x1="44.452" y1="78.2773" x2="85.1884" y2="83.2073" gradientUnits="userSpaceOnUse">
<stop stop-color="#237736"/>
<stop offset="1" stop-color="#34F45F"/>
</linearGradient>
<linearGradient id="paint13_linear_1_2212" x1="44.452" y1="78.2773" x2="85.1884" y2="83.2073" gradientUnits="userSpaceOnUse">
<stop stop-color="#237736"/>
<stop offset="1" stop-color="#34F45F"/>
</linearGradient>
<linearGradient id="paint14_linear_1_2212" x1="44.452" y1="78.2773" x2="85.1884" y2="83.2073" gradientUnits="userSpaceOnUse">
<stop stop-color="#237736"/>
<stop offset="1" stop-color="#34F45F"/>
</linearGradient>
<linearGradient id="paint15_linear_1_2212" x1="40.6582" y1="18.3638" x2="88.7007" y2="29.3012" gradientUnits="userSpaceOnUse">
<stop stop-color="#34F45F"/>
<stop offset="1" stop-color="#237736"/>
</linearGradient>
<linearGradient id="paint16_linear_1_2212" x1="40.1845" y1="14.0758" x2="84.2425" y2="14.0758" gradientUnits="userSpaceOnUse">
<stop stop-color="#C8A6FF"/>
<stop offset="1" stop-color="#69CFB5"/>
</linearGradient>
<linearGradient id="paint17_linear_1_2212" x1="39.3984" y1="34.4794" x2="64.8524" y2="36.5656" gradientUnits="userSpaceOnUse">
<stop stop-color="#34F45F"/>
<stop offset="1" stop-color="#237736"/>
</linearGradient>
<linearGradient id="paint18_linear_1_2212" x1="39.1582" y1="28.4396" x2="61.5" y2="28.4396" gradientUnits="userSpaceOnUse">
<stop stop-color="#C8A6FF"/>
<stop offset="1" stop-color="#69CFB5"/>
</linearGradient>
<linearGradient id="paint19_linear_1_2212" x1="62.4609" y1="34.4794" x2="87.9149" y2="36.5656" gradientUnits="userSpaceOnUse">
<stop stop-color="#34F45F"/>
<stop offset="1" stop-color="#237736"/>
</linearGradient>
<linearGradient id="paint20_linear_1_2212" x1="62.2207" y1="28.4396" x2="84.5625" y2="28.4396" gradientUnits="userSpaceOnUse">
<stop stop-color="#C8A6FF"/>
<stop offset="1" stop-color="#69CFB5"/>
</linearGradient>
<linearGradient id="paint21_linear_1_2212" x1="79.0957" y1="41.8971" x2="127.139" y2="52.8337" gradientUnits="userSpaceOnUse">
<stop stop-color="#34F45F"/>
<stop offset="1" stop-color="#237736"/>
</linearGradient>
<linearGradient id="paint22_linear_1_2212" x1="78.622" y1="37.6088" x2="122.68" y2="37.6088" gradientUnits="userSpaceOnUse">
<stop stop-color="#C8A6FF"/>
<stop offset="1" stop-color="#69CFB5"/>
</linearGradient>
<linearGradient id="paint23_linear_1_2212" x1="77.8359" y1="58.0154" x2="103.29" y2="60.1015" gradientUnits="userSpaceOnUse">
<stop stop-color="#34F45F"/>
<stop offset="1" stop-color="#237736"/>
</linearGradient>
<linearGradient id="paint24_linear_1_2212" x1="77.5957" y1="51.9752" x2="99.9375" y2="51.9752" gradientUnits="userSpaceOnUse">
<stop stop-color="#C8A6FF"/>
<stop offset="1" stop-color="#69CFB5"/>
</linearGradient>
<linearGradient id="paint25_linear_1_2212" x1="100.898" y1="58.0154" x2="126.352" y2="60.1015" gradientUnits="userSpaceOnUse">
<stop stop-color="#34F45F"/>
<stop offset="1" stop-color="#237736"/>
</linearGradient>
<linearGradient id="paint26_linear_1_2212" x1="100.658" y1="51.9752" x2="123" y2="51.9752" gradientUnits="userSpaceOnUse">
<stop stop-color="#C8A6FF"/>
<stop offset="1" stop-color="#69CFB5"/>
</linearGradient>
<linearGradient id="paint27_linear_1_2212" x1="2.22071" y1="41.8971" x2="50.2636" y2="52.8337" gradientUnits="userSpaceOnUse">
<stop stop-color="#34F45F"/>
<stop offset="1" stop-color="#237736"/>
</linearGradient>
<linearGradient id="paint28_linear_1_2212" x1="1.74697" y1="37.6088" x2="45.805" y2="37.6088" gradientUnits="userSpaceOnUse">
<stop stop-color="#C8A6FF"/>
<stop offset="1" stop-color="#69CFB5"/>
</linearGradient>
<linearGradient id="paint29_linear_1_2212" x1="0.960937" y1="58.0154" x2="26.415" y2="60.1015" gradientUnits="userSpaceOnUse">
<stop stop-color="#34F45F"/>
<stop offset="1" stop-color="#237736"/>
</linearGradient>
<linearGradient id="paint30_linear_1_2212" x1="0.720703" y1="51.9752" x2="23.0625" y2="51.9752" gradientUnits="userSpaceOnUse">
<stop stop-color="#C8A6FF"/>
<stop offset="1" stop-color="#69CFB5"/>
</linearGradient>
<linearGradient id="paint31_linear_1_2212" x1="24.0234" y1="58.0154" x2="49.4775" y2="60.1015" gradientUnits="userSpaceOnUse">
<stop stop-color="#34F45F"/>
<stop offset="1" stop-color="#237736"/>
</linearGradient>
<linearGradient id="paint32_linear_1_2212" x1="23.7832" y1="51.9752" x2="46.125" y2="51.9752" gradientUnits="userSpaceOnUse">
<stop stop-color="#C8A6FF"/>
<stop offset="1" stop-color="#69CFB5"/>
</linearGradient>
<linearGradient id="paint33_linear_1_2212" x1="40.6582" y1="67.4917" x2="88.7007" y2="78.4291" gradientUnits="userSpaceOnUse">
<stop stop-color="#34F45F"/>
<stop offset="1" stop-color="#237736"/>
</linearGradient>
<linearGradient id="paint34_linear_1_2212" x1="40.1845" y1="63.2038" x2="84.2425" y2="63.2038" gradientUnits="userSpaceOnUse">
<stop stop-color="#C8A6FF"/>
<stop offset="1" stop-color="#69CFB5"/>
</linearGradient>
<linearGradient id="paint35_linear_1_2212" x1="39.3984" y1="83.6074" x2="64.8524" y2="85.6937" gradientUnits="userSpaceOnUse">
<stop stop-color="#34F45F"/>
<stop offset="1" stop-color="#237736"/>
</linearGradient>
<linearGradient id="paint36_linear_1_2212" x1="39.1582" y1="77.5677" x2="61.5" y2="77.5677" gradientUnits="userSpaceOnUse">
<stop stop-color="#C8A6FF"/>
<stop offset="1" stop-color="#69CFB5"/>
</linearGradient>
<linearGradient id="paint37_linear_1_2212" x1="62.4609" y1="83.6074" x2="87.9149" y2="85.6937" gradientUnits="userSpaceOnUse">
<stop stop-color="#34F45F"/>
<stop offset="1" stop-color="#237736"/>
</linearGradient>
<linearGradient id="paint38_linear_1_2212" x1="62.2207" y1="77.5677" x2="84.5625" y2="77.5677" gradientUnits="userSpaceOnUse">
<stop stop-color="#C8A6FF"/>
<stop offset="1" stop-color="#69CFB5"/>
</linearGradient>
</defs>
</svg>
